<svg id="Layer_1" data-name="Layer 1" xmlns="http://www.w3.org/2000/svg" viewBox="0 0 112 112"><title>working</title>

<defs>
    <style>
        /* Hide all of the icons first. */
        .icon {
            display: none;
        }

        .icon--small {
            display: block;
        }


        /* Display the desired icon and hide the others according to the viewport's size. */
        @media screen and (min-width: 100px) {

            .icon--large {
                display: block;
            }

            .icon--small {
                display: none;
            }
        }

        @media screen and (max-width: 69px){
            .icon--small * {
                stroke-width: 3;
            }
        }
    </style>
</defs>


<g class="icon icon--large">
<polygon points="26.58 26.08 56 10.77 85.42 26.08 85.42 56.7 56 72 26.58 56.7 26.58 26.08" fill="none" stroke="#58595B" stroke-linecap="round" stroke-linejoin="round" stroke-width="2"/><line x1="56.01" y1="41.39" x2="27.51" y2="26.08" fill="none" stroke="#58595B" stroke-linecap="round" stroke-linejoin="round" stroke-width="2"/><polyline points="84.5 26.39 56 41.39 56 70.34" fill="none" stroke="#58595B" stroke-linecap="round" stroke-linejoin="round" stroke-width="2"/><line x1="69.57" y1="18.04" x2="41.07" y2="33.35" fill="none" stroke="#58595B" stroke-linecap="round" stroke-linejoin="round" stroke-width="2"/><path d="M16.92,70.87S8.39,55.54,6.44,51.48.26,50.28,1,53.11C1.58,55.5,8.27,73.36,10.22,79s3.31,7.37,6.6,8.68,19.71,7.71,21.77,13.59H50.78c0-14.71-7-20.25-7-20.25-7-5.14-17.62-9.17-21.18-11.15-4.93-2.74-8.81,3.54-4.12,6.57s12.59,7,12.59,7" fill="none" stroke="#58595B" stroke-linecap="round" stroke-linejoin="round" stroke-width="2"/><path d="M95.08,70.87s8.53-15.33,10.48-19.4,6.18-1.2,5.46,1.64c-.6,2.38-7.29,20.24-9.24,25.85s-3.31,7.37-6.6,8.68-19.71,7.71-21.77,13.59H61.22c0-14.71,7-20.25,7-20.25,7-5.14,17.62-9.17,21.18-11.15,4.93-2.74,8.81,3.54,4.12,6.57s-12.59,7-12.59,7" fill="none" stroke="#58595B" stroke-linecap="round" stroke-linejoin="round" stroke-width="2"/>
</g>
<g class="icon icon--small">
<polygon points="26.58 26.08 56 10.77 85.42 26.08 85.42 56.7 56 72 26.58 56.7 26.58 26.08" fill="none" stroke="#58595B" stroke-linecap="round" stroke-linejoin="round" stroke-width="2"/><line x1="56.01" y1="41.39" x2="27.51" y2="26.08" fill="none" stroke="#58595B" stroke-linecap="round" stroke-linejoin="round" stroke-width="2"/><polyline points="84.5 26.39 56 41.39 56 70.34" fill="none" stroke="#58595B" stroke-linecap="round" stroke-linejoin="round" stroke-width="2"/><line x1="69.57" y1="18.04" x2="41.07" y2="33.35" fill="none" stroke="#58595B" stroke-linecap="round" stroke-linejoin="round" stroke-width="2"/><path d="M16.92,70.87S8.39,55.54,6.44,51.48.26,50.28,1,53.11C1.58,55.5,8.27,73.36,10.22,79s3.31,7.37,6.6,8.68,19.71,7.71,21.77,13.59H50.78c0-14.71-7-20.25-7-20.25-7-5.14-17.62-9.17-21.18-11.15-4.93-2.74-8.81,3.54-4.12,6.57s12.59,7,12.59,7" fill="none" stroke="#58595B" stroke-linecap="round" stroke-linejoin="round" stroke-width="2"/><path d="M95.08,70.87s8.53-15.33,10.48-19.4,6.18-1.2,5.46,1.64c-.6,2.38-7.29,20.24-9.24,25.85s-3.31,7.37-6.6,8.68-19.71,7.71-21.77,13.59H61.22c0-14.71,7-20.25,7-20.25,7-5.14,17.62-9.17,21.18-11.15,4.93-2.74,8.81,3.54,4.12,6.57s-12.59,7-12.59,7" fill="none" stroke="#58595B" stroke-linecap="round" stroke-linejoin="round" stroke-width="2"/>
</g>

</svg>
