<svg xmlns="http://www.w3.org/2000/svg" viewBox="-2 -2 116 116">
    <defs>
        <style>
            /* Hide all of the icons first. */
            .icon {
                display: none;
            }

            .icon--small {
                display: block;
            }


            /* Display the desired icon and hide the others according to the viewport's size. */
            @media screen and (min-width: 100px) {

                .icon--large {
                    display: block;
                }

                .icon--small {
                    display: none;
                }
            }

            @media screen and (max-width: 69px){
                .icon--small *{
                    stroke-width: 3;
                }
            }
        </style>
    </defs>


    <g class="icon icon--large">
<path d="M48,75.85V71.62h2.61c1.59,0,2.27-.71,2.27-2.56V52.65c0-1.86-.68-2.56-2.27-2.56H48V45.85H59.6V69.06c0,1.86.68,2.56,2.27,2.56h2.78v4.23Zm7.48-43.27A4.39,4.39,0,0,1,59.6,37.2a4.39,4.39,0,0,1-4.08,4.62,4.39,4.39,0,0,1-4.08-4.62A4.39,4.39,0,0,1,55.51,32.58Z" fill="#58595B"/><circle cx="56" cy="56" r="55" fill="none" stroke="#58595B" stroke-miterlimit="10" stroke-width="2"/><circle cx="56" cy="56" r="50.47" fill="none" stroke="#58595B" stroke-linecap="round" stroke-linejoin="round" stroke-width="2"/>    </g>

    <g class="icon icon--small">
<path d="M48,75.85V71.62h2.61c1.59,0,2.27-.71,2.27-2.56V52.65c0-1.86-.68-2.56-2.27-2.56H48V45.85H59.6V69.06c0,1.86.68,2.56,2.27,2.56h2.78v4.23Zm7.48-43.27A4.39,4.39,0,0,1,59.6,37.2a4.39,4.39,0,0,1-4.08,4.62,4.39,4.39,0,0,1-4.08-4.62A4.39,4.39,0,0,1,55.51,32.58Z" fill="#58595B"/><circle cx="56" cy="56" r="55" fill="none" stroke="#58595B" stroke-miterlimit="10" stroke-width="2"/>
    </g>
</svg>
