<svg id="Layer_1" data-name="Layer 1" xmlns="http://www.w3.org/2000/svg" viewBox="0 0 112 112"><title>working 2</title>

<defs>
    <style>
        /* Hide all of the icons first. */
        .icon {
            display: none;
        }

        .icon--small {
            display: block;
        }


        /* Display the desired icon and hide the others according to the viewport's size. */
        @media screen and (min-width: 100px) {

            .icon--large {
                display: block;
            }

            .icon--small {
                display: none;
            }
        }

        @media screen and (max-width: 69px){
            .icon--small * {
                stroke-width: 3;
            }
        }
    </style>
</defs>


<g class="icon icon--large">
<polyline points="17.79 83.08 28.56 65.04 38.34 70.86 32.3 41.71 4.22 50.57 13.55 56.12 1.12 77.03" fill="none" stroke="#58595B" stroke-linecap="round" stroke-linejoin="round" stroke-width="2"/><path d="M44,100.54l.08-17.46H17.79c-14.06-.06-16.67-6-16.67-6s2.63,23.36,21.17,23.45H44" fill="none" stroke="#58595B" stroke-linecap="round" stroke-linejoin="round" stroke-width="2"/><polyline points="56.17 15.64 67.13 33.56 57.44 39.51 86.05 47.71 91.26 18.74 82.01 24.42 69.27 3.69" fill="none" stroke="#58595B" stroke-linecap="round" stroke-linejoin="round" stroke-width="2"/><path d="M28.53,30.71,44,38.9,56.17,15.64c6.59-12.42,13-12,13-12S47.31-4.88,38.61,11.5L28.53,30.71" fill="none" stroke="#58595B" stroke-linecap="round" stroke-linejoin="round" stroke-width="2"/><polyline points="95.51 82.36 74.5 82.25 74.56 70.87 52.5 90.87 74.38 110.56 74.43 99.71 98.76 99.81" fill="none" stroke="#58595B" stroke-linecap="round" stroke-linejoin="round" stroke-width="2"/><path d="M97.27,50.94,82.18,59.73,95.51,82.38c7.08,12.15,3.3,17.4,3.3,17.4s18.8-14.12,9.47-30.14l-11-18.7" fill="none" stroke="#58595B" stroke-linecap="round" stroke-linejoin="round" stroke-width="2"/></g>
<g class="icon icon--small">
<polyline points="17.91 83.02 28.68 64.98 38.46 70.79 32.42 41.65 4.35 50.5 13.68 56.05 1.24 76.97" fill="none" stroke="#58595B" stroke-linecap="round" stroke-linejoin="round" stroke-width="2"/><path d="M44.11,100.48,44.19,83H17.91C3.86,83,1.24,77,1.24,77s2.63,23.36,21.17,23.45h21.7" fill="none" stroke="#58595B" stroke-linecap="round" stroke-linejoin="round" stroke-width="2"/><polyline points="56.29 15.57 67.25 33.5 57.56 39.45 86.17 47.65 91.38 18.68 82.13 24.36 69.39 3.63" fill="none" stroke="#58595B" stroke-linecap="round" stroke-linejoin="round" stroke-width="2"/><path d="M28.65,30.65l15.42,8.19L56.29,15.58c6.59-12.42,13-12,13-12s-21.91-8.54-30.6,7.84L28.65,30.65" fill="none" stroke="#58595B" stroke-linecap="round" stroke-linejoin="round" stroke-width="2"/><polyline points="95.63 82.29 74.63 82.18 74.68 70.81 52.63 90.8 74.5 110.5 74.55 99.64 98.88 99.75" fill="none" stroke="#58595B" stroke-linecap="round" stroke-linejoin="round" stroke-width="2"/><path d="M97.39,50.88,82.3,59.67,95.63,82.31c7.08,12.15,3.3,17.4,3.3,17.4s18.8-14.12,9.47-30.14l-11-18.7" fill="none" stroke="#58595B" stroke-linecap="round" stroke-linejoin="round" stroke-width="2"/></g>

</svg>
