<svg xmlns="http://www.w3.org/2000/svg" viewBox="-2 -2 116 116">
    <defs>
        <style>
            /* Hide all of the icons first. */
            .icon {
                display: none;
            }

            .icon--small {
                display: block;
            }


            /* Display the desired icon and hide the others according to the viewport's size. */
            @media screen and (min-width: 100px) {

                .icon--large {
                    display: block;
                }

                .icon--small {
                    display: none;
                }
            }

            @media screen and (max-width: 69px){
                .icon--small * {
                    stroke-width: 3;
                }
            }
        </style>
    </defs>


    <g class="icon icon--large">
<rect x="84.97" y="1.01" width="13.75" height="24.06" fill="none" stroke="#58595B" stroke-linecap="round" stroke-linejoin="round" stroke-width="2"/><rect x="13.28" y="1.01" width="13.75" height="24.06" transform="translate(40.32 26.08) rotate(-180)" fill="none" stroke="#58595B" stroke-linecap="round" stroke-linejoin="round" stroke-width="2"/><line x1="84.97" y1="14.76" x2="27.1" y2="14.76" fill="none" stroke="#58595B" stroke-linecap="round" stroke-linejoin="round" stroke-width="2"/><path d="M12.28,14.76H2.57A1.56,1.56,0,0,0,1,16.32v93.1A1.56,1.56,0,0,0,2.57,111H109.43a1.56,1.56,0,0,0,1.56-1.56V16.32a1.56,1.56,0,0,0-1.56-1.56H98.72" fill="none" stroke="#58595B" stroke-linecap="round" stroke-linejoin="round" stroke-width="2"/><line x1="1.01" y1="38.82" x2="110.99" y2="38.82" fill="none" stroke="#58595B" stroke-linecap="round" stroke-linejoin="round" stroke-width="2"/><path d="M47.35,22.61c2.53,0,4.19,1,4.19,3.68S49.88,30,47.35,30H44.24V22.61Zm-1.07,5.94h1a2.1,2.1,0,0,0,2.16-2.26A2.1,2.1,0,0,0,47.24,24h-1Z" fill="#58595B"/><path d="M52.76,30V22.61h5.61V24H54.8v1.52h3.29V27H54.8v1.56h3.57V30Z" fill="#58595B"/><path d="M64.24,24.92c-.05-.66-.55-1-1.39-1-1.17,0-1.39,1.38-1.39,2.48s.24,2.34,1.39,2.34c.86,0,1.35-.38,1.39-1.08h2.14c0,1.86-1.75,2.51-3.53,2.51-2.3,0-3.53-1.38-3.53-3.85s1.23-3.81,3.53-3.83c1.79,0,3.56.61,3.53,2.47Z" fill="#58595B"/><path d="M13.4,74.84c0,1.45.87,2,2.25,2,1.17,0,2.59-.34,2.59-1.78,0-1-.83-1.41-1.68-1.58C14.87,73.1,12,72.71,12,70.4s2-3.06,4-3.06c1.75,0,3.48.78,3.48,2.78H18c-.06-1.15-1-1.55-2.05-1.55s-2.39.37-2.39,1.6.83,1.24,1.72,1.52c1.9.61,4.47.61,4.47,3.21,0,2.34-2.09,3.16-4.17,3.16s-3.72-.91-3.66-3.22Z" fill="#58595B"/><path d="M20.75,77.84l4.33-10.29H26.6l4.16,10.29H29.21L28.1,75.16H23.32l-1.11,2.68Zm3.06-3.9h3.83l-1.87-5Z" fill="#58595B"/><path d="M33.5,68.78H30.06V67.55h8.32v1.23H34.93v9.06H33.5Z" fill="#58595B"/><path d="M66,71.06c3.85.27,8.44-.69,8.44-5.46,0-3.53-2.52-4.72-5.74-4.72-2.84,0-5.32,1.83-5.41,4.82H58.52c-.09-5.55,4.81-8.76,9.91-8.76,5.59,0,10.87,2.71,10.87,8.94,0,3.62-3,6.51-6.46,7.16v.09a7.45,7.45,0,0,1,6.92,7.7c0,6-5.14,9.22-11.83,9.22-5.41,0-10-3.07-9.9-8.85h4.81c-.09,3.16,2.57,4.91,5.78,4.91s6.33-1.79,6.33-5.09c0-5.41-4.4-6.28-8.9-6Z" fill="#58595B"/><path d="M98,89.36H93.39V62.44A50.34,50.34,0,0,1,86,67.07l-.18-4.63a81.32,81.32,0,0,0,7.61-4.82H98Z" fill="#58595B"/><line x1="47.62" y1="53.19" x2="47.62" y2="94.21" fill="none" stroke="#58595B" stroke-linecap="round" stroke-linejoin="round" stroke-width="2"/>
    </g>

    <g class="icon icon--small">
<rect x="86.98" y="1" width="13.75" height="24.06" fill="none" stroke="#58595B" stroke-linecap="round" stroke-linejoin="round" stroke-width="2"/><rect x="11.27" y="1" width="13.75" height="24.06" transform="translate(36.3 26.06) rotate(-180)" fill="none" stroke="#58595B" stroke-linecap="round" stroke-linejoin="round" stroke-width="2"/><line x1="86.98" y1="14.75" x2="25.1" y2="14.75" fill="none" stroke="#58595B" stroke-linecap="round" stroke-linejoin="round" stroke-width="2"/><path d="M11.27,14.75H2.56A1.56,1.56,0,0,0,1,16.31v93.12A1.56,1.56,0,0,0,2.56,111H109.44a1.56,1.56,0,0,0,1.56-1.56V16.31a1.56,1.56,0,0,0-1.56-1.56h-8.71" fill="none" stroke="#58595B" stroke-linecap="round" stroke-linejoin="round" stroke-width="2"/><line x1="1" y1="38.81" x2="111" y2="38.81" fill="none" stroke="#58595B" stroke-linecap="round" stroke-linejoin="round" stroke-width="2"/><path d="M80.7,88.6h4.13V62.35h10V58.8H70.71v3.55h10ZM58.34,62.88l5.41,14.41H52.65ZM48,88.6l3.22-7.76H65.07l3.22,7.76h4.5L60.74,58.8H56.32L43.77,88.6ZM18.2,79.89c-.17,6.69,4.38,9.33,10.61,9.33,6,0,12.09-2.39,12.09-9.16,0-7.51-7.47-7.51-13-9.29-2.6-.83-5-1-5-4.42,0-3.55,4-4.62,6.93-4.62s5.78,1.16,5.94,4.5h4.33c0-5.78-5-8-10.07-8-5.57,0-11.47,2.4-11.47,8.88,0,6.69,8.17,7.8,13.08,8.87,2.48.5,4.87,1.69,4.87,4.58,0,4.17-4.13,5.16-7.51,5.16-4,0-6.44-1.57-6.52-5.78Z" fill="#58595B"/>
    </g>
</svg>
