<svg xmlns="http://www.w3.org/2000/svg" viewBox="-2 -2 116 116">
    <defs>
        <style>
            /* Hide all of the icons first. */
            .icon {
                display: none;
            }

            .icon--small {
                display: block;
            }


            /* Display the desired icon and hide the others according to the viewport's size. */
            @media screen and (min-width: 100px) {

                .icon--large {
                    display: block;
                }

                .icon--small {
                    display: none;
                }
            }

            @media screen and (max-width: 69px){
                .icon--small * {
                    stroke-width: 3;
                }
            }
        </style>
    </defs>


    <g class="icon icon--large">
        <polygon points="1 29.49 56.05 2.97 111 29.49 111 82.51 56.05 109.03 1 82.51 1 29.49" fill="none" stroke="#58595B" stroke-miterlimit="10" stroke-width="2"/><line x1="56.11" y1="56" x2="1" y2="29.49" fill="none" stroke="#58595B" stroke-miterlimit="10" stroke-width="2"/><line x1="64.16" y1="52" x2="9.05" y2="25.49" fill="none" stroke="#58595B" stroke-miterlimit="10" stroke-width="2"/><line x1="69.63" y1="17.47" x2="30.88" y2="36.11" fill="none" stroke="#58595B" stroke-miterlimit="10" stroke-width="2"/><line x1="77.81" y1="21.4" x2="39.18" y2="39.99" fill="none" stroke="#58595B" stroke-miterlimit="10" stroke-width="2"/><line x1="102.95" y1="33.5" x2="47.84" y2="6.99" fill="none" stroke="#58595B" stroke-miterlimit="10" stroke-width="2"/><line x1="56.11" y1="56" x2="56.11" y2="108.65" fill="none" stroke="#58595B" stroke-miterlimit="10" stroke-width="2"/><line x1="111" y1="29.49" x2="56.11" y2="56" fill="none" stroke="#58595B" stroke-miterlimit="10" stroke-width="2"/>
    </g>

    <g class="icon icon--small">
        <polygon points="1 28.38 56.05 0.76 111 28.38 111 83.62 56.05 111.24 1 83.62 1 28.38" fill="none" stroke="#58595B" stroke-miterlimit="10" stroke-width="2" class="smallstroke"/><line x1="56.11" y1="56" x2="1" y2="28.38" fill="none" stroke="#58595B" stroke-miterlimit="10" stroke-width="2" class="smallstroke"/><line x1="56.11" y1="56" x2="56.11" y2="109.81" fill="none" stroke="#58595B" stroke-miterlimit="10" stroke-width="2" class="smallstroke"/><line x1="111" y1="28.38" x2="56.11" y2="56" fill="none" stroke="#58595B" stroke-miterlimit="10" stroke-width="2" class="smallstroke"/><line x1="81.85" y1="13.77" x2="26.96" y2="41.4" fill="none" stroke="#58595B" stroke-miterlimit="10" stroke-width="2" class="smallstroke"/>
    </g>
</svg>
