<svg id="Layer_1" data-name="Layer 1" xmlns="http://www.w3.org/2000/svg" viewBox="0 0 112 112"><title>working 2</title>

<defs>
    <style>
        /* Hide all of the icons first. */
        .icon {
            display: none;
        }

        .icon--small {
            display: block;
        }


        /* Display the desired icon and hide the others according to the viewport's size. */
        @media screen and (min-width: 100px) {

            .icon--large {
                display: block;
            }

            .icon--small {
                display: none;
            }
        }

        @media screen and (max-width: 69px){
            .icon--small * {
                stroke-width: 3;
            }
        }
    </style>
</defs>


<g class="icon icon--large">

<path d="M72.47,15.82A48.94,48.94,0,1,1,54.9,13" fill="none" stroke="#58595B" stroke-linecap="round" stroke-linejoin="round" stroke-width="2"/><path d="M72.47,15.82A48.94,48.94,0,1,1,54.9,13" fill="none" stroke="#58595B" stroke-linecap="round" stroke-linejoin="round" stroke-width="2"/><polyline points="67.06 30.26 52.84 62.02 67.06 87.03" fill="none" stroke="#58595B" stroke-linecap="round" stroke-linejoin="round" stroke-width="2"/><polyline points="39.06 1.21 47.63 6.79 56.2 12.38 51.6 21.51 46.99 30.64" fill="none" stroke="#58595B" stroke-linecap="round" stroke-linejoin="round" stroke-width="2"/><line x1="55.33" y1="109.89" x2="55.33" y2="100.8" fill="none" stroke="#58595B" stroke-linecap="round" stroke-linejoin="round" stroke-width="2"/><line x1="7.56" y1="62.12" x2="16.65" y2="62.12" fill="none" stroke="#58595B" stroke-linecap="round" stroke-linejoin="round" stroke-width="2"/><line x1="94.01" y1="62.12" x2="104.1" y2="62.12" fill="none" stroke="#58595B" stroke-linecap="round" stroke-linejoin="round" stroke-width="2"/>
</g>
<g class="icon icon--small">

<path d="M72.47,15.82A48.94,48.94,0,1,1,54.9,13" fill="none" stroke="#58595B" stroke-linecap="round" stroke-linejoin="round" stroke-width="2"/><path d="M72.47,15.82A48.94,48.94,0,1,1,54.9,13" fill="none" stroke="#58595B" stroke-linecap="round" stroke-linejoin="round" stroke-width="2"/><polyline points="67.06 30.26 52.84 62.02 67.06 87.03" fill="none" stroke="#58595B" stroke-linecap="round" stroke-linejoin="round" stroke-width="2"/><polyline points="39.06 1.21 47.63 6.79 56.2 12.38 51.6 21.51 46.99 30.64" fill="none" stroke="#58595B" stroke-linecap="round" stroke-linejoin="round" stroke-width="2"/><line x1="55.33" y1="109.89" x2="55.33" y2="100.8" fill="none" stroke="#58595B" stroke-linecap="round" stroke-linejoin="round" stroke-width="2"/><line x1="7.56" y1="62.12" x2="16.65" y2="62.12" fill="none" stroke="#58595B" stroke-linecap="round" stroke-linejoin="round" stroke-width="2"/><line x1="94.01" y1="62.12" x2="104.1" y2="62.12" fill="none" stroke="#58595B" stroke-linecap="round" stroke-linejoin="round" stroke-width="2"/>
</g>
</svg>
