<svg xmlns="http://www.w3.org/2000/svg" viewBox="-2 -2 116 116">
    <defs>
        <style>
            /* Hide all of the icons first. */
            .icon {
                display: none;
            }

            .icon--small {
                display: block;
            }


            /* Display the desired icon and hide the others according to the viewport's size. */
            @media screen and (min-width: 100px) {

                .icon--large {
                    display: block;
                }

                .icon--small {
                    display: none;
                }
            }

            @media screen and (max-width: 69px){
                .icon--small * {
                    stroke-width: 3;
                }
            }
        </style>
    </defs>


    <g class="icon icon--large">
<line x1="41" y1="93.78" x2="81" y2="93.78" fill="none" stroke="#4d148c" stroke-linecap="round" stroke-linejoin="round" stroke-width="2"/><line x1="41" y1="100.29" x2="81" y2="100.29" fill="none" stroke="#4d148c" stroke-linecap="round" stroke-linejoin="round" stroke-width="2"/><path d="M13.59,10.17v92.41c0,5,3.56,8.42,8.57,8.42H98.41V19.33H22.65A9.17,9.17,0,0,1,22.65,1h69.8" fill="none" stroke="#4d148c" stroke-linecap="round" stroke-linejoin="round" stroke-width="2"/><line x1="22.5" y1="19.33" x2="22.5" y2="111" fill="none" stroke="#4d148c" stroke-linecap="round" stroke-linejoin="round" stroke-width="2"/><circle cx="60.99" cy="62.2" r="20.2" fill="none" stroke="#4d148c" stroke-miterlimit="10" stroke-width="2"/><circle cx="60.99" cy="59.31" r="7.08" fill="none" stroke="#4d148c" stroke-miterlimit="10" stroke-width="2"/><path d="M48.79,78.29l1.52-7.81a5.06,5.06,0,0,1,4.76-3.93H66.91a5.06,5.06,0,0,1,4.76,3.93l1.52,7.81" fill="none" stroke="#4d148c" stroke-miterlimit="10" stroke-width="2"/><line x1="22" y1="10.17" x2="95.09" y2="10.17" fill="none" stroke="#4d148c" stroke-linecap="round" stroke-linejoin="round" stroke-width="2"/>
    </g>

    <g class="icon icon--small">
<path d="M13.59,10.17v92.41c0,5,3.56,8.42,8.57,8.42H98.41V19.33H22.65A9.17,9.17,0,0,1,22.65,1h69.8" fill="none" stroke="#4d148c" stroke-linecap="round" stroke-linejoin="round" stroke-width="2"/><circle cx="61.78" cy="53.53" r="12.74" fill="none" stroke="#4d148c" stroke-linecap="round" stroke-linejoin="round" stroke-width="2"/><path d="M39.83,87.86l3.68-19a2.77,2.77,0,0,1,2.6-2.15H77.45a2.77,2.77,0,0,1,2.6,2.15l3.68,19" fill="none" stroke="#4d148c" stroke-linecap="round" stroke-linejoin="round" stroke-width="2"/><line x1="22.5" y1="19.33" x2="22.5" y2="111" fill="none" stroke="#4d148c" stroke-linecap="round" stroke-linejoin="round" stroke-width="2"/>
    </g>
</svg>
