<svg xmlns="http://www.w3.org/2000/svg" viewBox="-2 -2 116 116">
    <defs>
        <style>
            /* Hide all of the icons first. */
            .icon {
                display: none;
            }

            .icon--small {
                display: block;
            }


            /* Display the desired icon and hide the others according to the viewport's size. */
            @media screen and (min-width: 100px) {

                .icon--large {
                    display: block;
                }

                .icon--small {
                    display: none;
                }
            }

            @media screen and (max-width: 69px){
                .icon--small * {
                    stroke-width: 3;
                }
            }
        </style>
    </defs>


    <g class="icon icon--large">
      <ellipse cx="33.32" cy="73.76" rx="5.16" ry="5.08" fill="none" stroke="#4d148c" stroke-miterlimit="10" stroke-width="2"/><ellipse cx="78.68" cy="73.76" rx="5.16" ry="5.08" fill="none" stroke="#4d148c" stroke-miterlimit="10" stroke-width="2"/><path d="M61.36,71.57l48.91-10a.79.79,0,1,0-.14-1.57l-42.7,3.79" fill="none" stroke="#4d148c" stroke-miterlimit="10" stroke-width="2"/><path d="M44.58,63.74,1.87,60a.79.79,0,1,0-.14,1.57l48.76,10" fill="none" stroke="#4d148c" stroke-miterlimit="10" stroke-width="2"/><ellipse cx="56.01" cy="60.19" rx="11.89" ry="12.81" fill="#fff" stroke="#4d148c" stroke-miterlimit="10" stroke-width="2"/><line x1="50.14" y1="55.6" x2="61.37" y2="55.6" fill="none" stroke="#4d148c" stroke-miterlimit="10" stroke-width="2"/><path d="M58.17,47.38,57.08,34.23a1.08,1.08,0,0,0-2.16,0L53.81,47.6" fill="none" stroke="#4d148c" stroke-miterlimit="10" stroke-width="2"/><path d="M44.59,56.62l-13.16-2.8a1.08,1.08,0,0,0-1.35.71,1.06,1.06,0,0,0,.72,1.33L44.12,61" fill="none" stroke="#4d148c" stroke-miterlimit="10" stroke-width="2"/><path d="M67.43,56.62l13.15-2.8a1.08,1.08,0,0,1,1.35.71,1.06,1.06,0,0,1-.72,1.33L67.87,61" fill="none" stroke="#4d148c" stroke-miterlimit="10" stroke-width="2"/>
    </g>

    <g class="icon icon--small">
<line x1="56.03" y1="20.4" x2="56.03" y2="1" fill="none" stroke="#4d148c" stroke-linecap="round" stroke-miterlimit="10" stroke-width="2"/><circle cx="33.33" cy="53.6" r="5.9" fill="none" stroke="#4d148c" stroke-miterlimit="10" stroke-width="2.26"/><circle cx="78.73" cy="53.6" r="6" fill="none" stroke="#4d148c" stroke-miterlimit="10" stroke-width="2"/><line x1="67.63" y1="27.7" x2="84.73" y2="24" fill="none" stroke="#4d148c" stroke-linecap="round" stroke-miterlimit="10" stroke-width="2"/><line x1="44.43" y1="27.7" x2="27.13" y2="24" fill="none" stroke="#4d148c" stroke-linecap="round" stroke-miterlimit="10" stroke-width="2"/><path d="M69.4,60.3C68.3,67.5,62.7,73,56,73c-7.5,0-13.6-6.9-13.6-15.4S48.5,42.4,56,42.4s13.6,6.9,13.6,15.4a10.55,10.55,0,0,1-.2,2.5" transform="translate(0.03 -22)" fill="none" stroke="#4d148c" stroke-miterlimit="10" stroke-width="2"/><line x1="51.43" y1="31.7" x2="60.63" y2="31.7" fill="none" stroke="#4d148c" stroke-linecap="round" stroke-miterlimit="10" stroke-width="2"/><path d="M52.4,72.5l-49-7.4a2.89,2.89,0,0,1,.9-5.7l38.4,2" transform="translate(0.03 -22)" fill="none" stroke="#4d148c" stroke-miterlimit="10" stroke-width="2"/><path d="M59.6,72.5l49-7.4a2.89,2.89,0,1,0-.9-5.7l-38.4,2" transform="translate(0.03 -22)" fill="none" stroke="#4d148c" stroke-miterlimit="10" stroke-width="2"/>    </g>
</svg>
