<svg id="Layer_1" data-name="Layer 1" xmlns="http://www.w3.org/2000/svg" viewBox="0 0 112 112"><title>working</title>
<defs>
	<style>
		/* Hide all of the icons first. */
		.icon {
			display: none;
		}

		.icon--small {
			display: block;
		}


		/* Display the desired icon and hide the others according to the viewport's size. */
		@media screen and (min-width: 100px) {

			.icon--large {
				display: block;
			}

			.icon--small {
				display: none;
			}
		}

		@media screen and (max-width: 69px){
			.icon--small * {
				stroke-width: 3;
			}
		}
	</style>
</defs>

    <g class="icon icon--large">
	<path class="st0" d="M102.2,77.3L57.8,87.7c-0.8,0.2-1.6-0.3-1.8-1.1c0-0.1,0-0.3,0-0.4V26.6L101.9,16c1-0.2,1.9,0.4,2.2,1.3
	c0,0.1,0,0.1,0,0.2v58.3C104.1,76.5,102.9,77.2,102.2,77.3z" fill="#fff" stroke="#4d148c" stroke-miterlimit="10" stroke-width="2"/>
	<path class="st0" d="M53.6,87.7L9.1,77.3c-0.7-0.2-1.2-0.8-1.2-1.5V17.5c0.1-1,1-1.7,2-1.5c0.1,0,0.1,0,0.2,0L56,26.6v59.5
	C56,87.2,54.6,87.9,53.6,87.7z" fill="#fff" stroke="#4d148c" stroke-miterlimit="10" stroke-width="2"/>
	<path class="st0" d="M104.2,16.9c2.6-1,5.6,0.4,6.5,3c0.1,0.3,0.2,0.6,0.3,1v54.9c0.1,4.7-3.1,8.8-7.7,9.9L56,96.1"  fill="none" stroke="#4d148c" stroke-linecap="round" stroke-miterlimit="10" stroke-width="2"/>
	<path class="st0" d="M56,96.1L8.7,85.7c-4.6-1.1-7.8-5.2-7.7-9.9V21c0.4-2.8,3-4.7,5.8-4.3c0.3,0.1,0.7,0.1,1,0.3"  fill="none" stroke="#4d148c" stroke-linecap="round" stroke-miterlimit="10" stroke-width="2"/>
	<line class="st0" x1="64.6" y1="40.5" x2="93.1" y2="33.8" fill="#fff" stroke="#4d148c" stroke-miterlimit="10" stroke-width="2"/>
	<line class="st0" x1="64.6" y1="55.2" x2="93.1" y2="48.5" fill="#fff" stroke="#4d148c" stroke-miterlimit="10" stroke-width="2"/>
	<line class="st0" x1="64.6" y1="69.8" x2="93.1" y2="63.2" fill="#fff" stroke="#4d148c" stroke-miterlimit="10" stroke-width="2"/>
	<line class="st0" x1="64.6" y1="47.8" x2="93.1" y2="41.2" fill="#fff" stroke="#4d148c" stroke-miterlimit="10" stroke-width="2"/>
	<line class="st0" x1="63.9" y1="62.5" x2="92.4" y2="55.8" fill="#fff" stroke="#4d148c" stroke-miterlimit="10" stroke-width="2"/>
	<line class="st0" x1="46.5" y1="40.5" x2="17.9" y2="33.8" fill="#fff" stroke="#4d148c" stroke-miterlimit="10" stroke-width="2"/>
	<line class="st0" x1="46.5" y1="55.2" x2="17.9" y2="48.5" fill="#fff" stroke="#4d148c" stroke-miterlimit="10" stroke-width="2"/>
	<line class="st0" x1="46.5" y1="69.8" x2="17.9" y2="63.2" fill="#fff" stroke="#4d148c" stroke-miterlimit="10" stroke-width="2"/>
	<line class="st0" x1="46.5" y1="47.8" x2="17.9" y2="41.2" fill="#fff" stroke="#4d148c" stroke-miterlimit="10" stroke-width="2"/>
	<line class="st0" x1="47.1" y1="62.5" x2="18.5" y2="55.8" fill="#fff" stroke="#4d148c" stroke-miterlimit="10" stroke-width="2"/>
</g>

<g class="icon icon--small">
<path class="st0" d="M102.2,77.3L57.8,87.7c-0.8,0.2-1.6-0.3-1.8-1.1c0-0.1,0-0.3,0-0.4V26.6L101.9,16c1-0.2,1.9,0.4,2.2,1.3
c0,0.1,0,0.1,0,0.2v58.3C104.1,76.5,102.9,77.2,102.2,77.3z" fill="#fff" stroke="#4d148c" stroke-miterlimit="10" stroke-width="2"/>
<path class="st0" d="M53.6,87.7L9.1,77.3c-0.7-0.2-1.2-0.8-1.2-1.5V17.5c0.1-1,1-1.7,2-1.5c0.1,0,0.1,0,0.2,0L56,26.6v59.5
C56,87.2,54.6,87.9,53.6,87.7z" fill="#fff" stroke="#4d148c" stroke-miterlimit="10" stroke-width="2"/>
<path class="st0" d="M104.2,16.9c2.6-1,5.6,0.4,6.5,3c0.1,0.3,0.2,0.6,0.3,1v54.9c0.1,4.7-3.1,8.8-7.7,9.9L56,96.1"  fill="none" stroke="#4d148c" stroke-linecap="round" stroke-miterlimit="10" stroke-width="2"/>
<path class="st0" d="M56,96.1L8.7,85.7c-4.6-1.1-7.8-5.2-7.7-9.9V21c0.4-2.8,3-4.7,5.8-4.3c0.3,0.1,0.7,0.1,1,0.3"  fill="none" stroke="#4d148c" stroke-linecap="round" stroke-miterlimit="10" stroke-width="2"/>
<line class="st0" x1="64.6" y1="40.5" x2="93.1" y2="33.8" fill="#fff" stroke="#4d148c" stroke-miterlimit="10" stroke-width="2"/>
<line class="st0" x1="64.6" y1="55.2" x2="93.1" y2="48.5" fill="#fff" stroke="#4d148c" stroke-miterlimit="10" stroke-width="2"/>
<line class="st0" x1="64.6" y1="69.8" x2="93.1" y2="63.2" fill="#fff" stroke="#4d148c" stroke-miterlimit="10" stroke-width="2"/>
<line class="st0" x1="64.6" y1="47.8" x2="93.1" y2="41.2" fill="#fff" stroke="#4d148c" stroke-miterlimit="10" stroke-width="2"/>
<line class="st0" x1="63.9" y1="62.5" x2="92.4" y2="55.8" fill="#fff" stroke="#4d148c" stroke-miterlimit="10" stroke-width="2"/>
<line class="st0" x1="46.5" y1="40.5" x2="17.9" y2="33.8" fill="#fff" stroke="#4d148c" stroke-miterlimit="10" stroke-width="2"/>
<line class="st0" x1="46.5" y1="55.2" x2="17.9" y2="48.5" fill="#fff" stroke="#4d148c" stroke-miterlimit="10" stroke-width="2"/>
<line class="st0" x1="46.5" y1="69.8" x2="17.9" y2="63.2" fill="#fff" stroke="#4d148c" stroke-miterlimit="10" stroke-width="2"/>
<line class="st0" x1="46.5" y1="47.8" x2="17.9" y2="41.2" fill="#fff" stroke="#4d148c" stroke-miterlimit="10" stroke-width="2"/>
<line class="st0" x1="47.1" y1="62.5" x2="18.5" y2="55.8" fill="#fff" stroke="#4d148c" stroke-miterlimit="10" stroke-width="2"/>
</g>

</svg>
