<svg xmlns="http://www.w3.org/2000/svg" viewBox="-2 -2 116 116">
    <defs>
        <style>
            /* Hide all of the icons first. */
            .icon {
                display: none;
            }

            .icon--small {
                display: block;
            }


            /* Display the desired icon and hide the others according to the viewport's size. */
            @media screen and (min-width: 100px) {

                .icon--large {
                    display: block;
                }

                .icon--small {
                    display: none;
                }
            }

            @media screen and (max-width: 69px){
                .icoin--small * {
                    stroke-width: 3;
                }
            }
        </style>
    </defs>


    <g class="icon icon--large">
<path d="M13.59,10.17v92.41c0,5,3.56,8.42,8.57,8.42H98.41V19.33H22.65A9.17,9.17,0,0,1,22.65,1h69.8" fill="none" stroke="#4d148c" stroke-linecap="round" stroke-linejoin="round" stroke-width="2"/><line x1="22.5" y1="19.33" x2="22.5" y2="111" fill="none" stroke="#4d148c" stroke-linecap="round" stroke-linejoin="round" stroke-width="2"/><line x1="22" y1="10.17" x2="93.04" y2="10.17" fill="none" stroke="#4d148c" stroke-linecap="round" stroke-linejoin="round" stroke-width="2"/><line x1="90.05" y1="1" x2="96.02" y2="19.33" fill="none" stroke="#4d148c" stroke-linecap="round" stroke-linejoin="round" stroke-width="2"/><line x1="26.75" y1="14.63" x2="94.21" y2="14.63" fill="none" stroke="#4d148c" stroke-linecap="round" stroke-linejoin="round" stroke-width="2"/><line x1="26.75" y1="5.71" x2="91.58" y2="5.71" fill="none" stroke="#4d148c" stroke-linecap="round" stroke-linejoin="round" stroke-width="2"/>
    </g>

    <g class="icon icon--small">
<path d="M13.59,10.17v92.41c0,5,3.56,8.42,8.57,8.42H98.41V19.33H22.65A9.17,9.17,0,0,1,22.65,1h69.8V19.33" fill="none" stroke="#4d148c" stroke-linecap="round" stroke-linejoin="round" stroke-width="3"/><line x1="22.5" y1="19.33" x2="22.5" y2="111" fill="none" stroke="#4d148c" stroke-linecap="round" stroke-linejoin="round" stroke-width="2"/>
    </g>
</svg>
