<svg xmlns="http://www.w3.org/2000/svg" viewBox="-2 -2 116 116">
    <defs>
        <style>
            /* Hide all of the icons first. */
            .icon {
                display: none;
            }

            .icon--small {
                display: block;
            }


            /* Display the desired icon and hide the others according to the viewport's size. */
            @media screen and (min-width: 100px) {

                .icon--large {
                    display: block;
                }

                .icon--small {
                    display: none;
                }
            }

            @media screen and (max-width: 69px){
                .icon--small * {
                    stroke-width: 3;
                }
            }
        </style>
    </defs>


    <g class="icon icon--large">
<line x1="70.43" y1="33.64" x2="2.68" y2="33.64" fill="none" stroke="#4d148c" stroke-linecap="round" stroke-linejoin="round" stroke-width="2"/><path d="M110.84,18.26V64.64c0,.47-.3,1.35-.76,1.35H96.14V80c0,.89-1.41,1.59-2,1L78.55,66H71.13" fill="none" stroke="#4d148c" stroke-linecap="round" stroke-linejoin="round" stroke-width="2"/><path d="M42.33,16h68.52V64.64c0,.47-.3,1.35-.76,1.35H96.14V80c0,.89-1.41,1.59-2,1L78.55,66H71.13" fill="none" stroke="#4d148c" stroke-linecap="round" stroke-linejoin="round" stroke-width="2"/><line x1="40.25" y1="32.17" x2="40.25" y2="18.26" fill="none" stroke="#4d148c" stroke-linecap="round" stroke-linejoin="round" stroke-width="2"/><path d="M16.72,80.7V94.89a1.26,1.26,0,0,0,2,.86L34.2,80.7H70.43" fill="none" stroke="#4d148c" stroke-linecap="round" stroke-linejoin="round" stroke-width="2"/><path d="M70.43,33.64H1.16V80.7H16.72V94.89a1.26,1.26,0,0,0,2,.86L34.2,80.7H70.43Z" fill="none" stroke="#4d148c" stroke-linecap="round" stroke-linejoin="round" stroke-width="2"/><polyline points="42.33 15.99 40.25 15.99 40.25 18.26 40.25 33.16" fill="none" stroke="#4d148c" stroke-linecap="round" stroke-linejoin="round" stroke-width="2"/><circle cx="23.88" cy="56.88" r="14.5" fill="none" stroke="#4d148c" stroke-linecap="round" stroke-linejoin="round" stroke-width="2"/><circle cx="23.87" cy="54.8" r="5.08" fill="none" stroke="#4d148c" stroke-linecap="round" stroke-linejoin="round" stroke-width="2"/><path d="M15.12,68.43l.87-4.5A5.06,5.06,0,0,1,20.75,60H27a5.06,5.06,0,0,1,4.76,3.93l.87,4.5" fill="none" stroke="#4d148c" stroke-linecap="round" stroke-linejoin="round" stroke-width="2"/><line x1="43.5" y1="49.25" x2="64" y2="49.25" fill="none" stroke="#4d148c" stroke-linecap="round" stroke-linejoin="round" stroke-width="2"/><line x1="43.5" y1="54.32" x2="64" y2="54.32" fill="none" stroke="#4d148c" stroke-linecap="round" stroke-linejoin="round" stroke-width="2"/><line x1="43.5" y1="59.39" x2="64" y2="59.39" fill="none" stroke="#4d148c" stroke-linecap="round" stroke-linejoin="round" stroke-width="2"/><line x1="43.5" y1="64.47" x2="64" y2="64.47" fill="none" stroke="#4d148c" stroke-linecap="round" stroke-linejoin="round" stroke-width="2"/>
    </g>

    <g class="icon icon--small">
<line x1="70.43" y1="33.64" x2="2.68" y2="33.64" fill="none" stroke="#4d148c" stroke-linecap="round" stroke-linejoin="round" stroke-width="2"/><path d="M110.84,18.26V64.64c0,.47-.3,1.35-.76,1.35H96.14V80c0,.89-1.41,1.59-2,1L78.55,66H71.13" fill="none" stroke="#4d148c" stroke-linecap="round" stroke-linejoin="round" stroke-width="2"/><path d="M42.33,16h68.52V64.64c0,.47-.3,1.35-.76,1.35H96.14V80c0,.89-1.41,1.59-2,1L78.55,66H71.13" fill="none" stroke="#4d148c" stroke-linecap="round" stroke-linejoin="round" stroke-width="2"/><line x1="40.25" y1="32.17" x2="40.25" y2="18.26" fill="none" stroke="#4d148c" stroke-linecap="round" stroke-linejoin="round" stroke-width="2"/><circle cx="22.25" cy="56.03" r="2.5" transform="translate(-36.22 41.34) rotate(-54.23)" fill="#4d148c"/><circle cx="36.55" cy="56.03" r="2.5" transform="translate(-30.28 52.94) rotate(-54.23)" fill="#4d148c"/><circle cx="50.86" cy="56.03" r="2.5" transform="translate(-24.33 64.55) rotate(-54.23)" fill="#4d148c"/><path d="M16.72,80.7V94.89a1.26,1.26,0,0,0,2,.86L34.2,80.7H70.43" fill="none" stroke="#4d148c" stroke-linecap="round" stroke-linejoin="round" stroke-width="2"/><path d="M70.43,33.64H1.16V80.7H16.72V94.89a1.26,1.26,0,0,0,2,.86L34.2,80.7H70.43Z" fill="none" stroke="#4d148c" stroke-linecap="round" stroke-linejoin="round" stroke-width="2"/><polyline points="42.33 15.99 40.25 15.99 40.25 18.26 40.25 33.16" fill="none" stroke="#4d148c" stroke-linecap="round" stroke-linejoin="round" stroke-width="2"/>
    </g>
</svg>
