<svg xmlns="http://www.w3.org/2000/svg" viewBox="-2 -2 116 116">
    <defs>
        <style>
            /* Hide all of the icons first. */
            .icon {
                display: none;
            }

            .icon--small {
                display: block;
            }


            /* Display the desired icon and hide the others according to the viewport's size. */
            @media screen and (min-width: 100px) {

                .icon--large {
                    display: block;
                }

                .icon--small {
                    display: none;
                }
            }

            @media screen and (max-width: 69px){
                .icon--small * {
                    stroke-width: 3;
                }
            }
        </style>
    </defs>


    <g class="icon icon--large">
<path d="M66.78,28.68a.51.51,0,1,0-.57.44.49.49,0,0,0,.57-.44m-.64-.06,0,.33H66l.09-.73.27,0c.16,0,.22.1.21.23a.15.15,0,0,1-.15.14h0c.06,0,.08.08.08.18a.66.66,0,0,0,0,.21l-.13,0c0-.07,0-.17,0-.25s0-.09-.11-.1Zm.15-.08c.11,0,.14,0,.15-.09s0-.11-.12-.12l-.14,0,0,.21Zm-.64,0a.63.63,0,1,1,.54.68.61.61,0,0,1-.54-.68" fill="#4d148c"/><path d="M63.63,27.14c.67-.6,1-.9,1.71-1.49l-1.83-.19-.69.63-.6-.73c-1.39-.1-2.09-.13-3.48-.17v-.44l1.66.06.06-1.33c-1.82-.09-2.73-.1-4.55-.08l0,2.09h0a1.3,1.3,0,0,0-1-.39c-.84,0-1.62,1.31-1.62,1.31s-1-1.21-1.92-1.14a1.87,1.87,0,0,0-1.63,1l-.07-.67-1.6.18L48,25.08l1.77-.19-.11-1.13c-1.31.13-2,.21-3.26.39l.72,5L48.44,29l-.26-2.13,1.41-.16a1.93,1.93,0,0,0,0,.51,2,2,0,0,0,3.76.37l-1.19.07a.61.61,0,0,1-.58.33.71.71,0,0,1-.75-.64c1-.08,1.46-.12,2.44-.17A1.77,1.77,0,0,0,55,28.71a1.19,1.19,0,0,0,1-.54h0v.33a58.41,58.41,0,0,1,5.95.17l.67-.64.58.74L65,29C64.47,28.22,64.19,27.86,63.63,27.14Zm-12.85-.51a.67.67,0,0,1,.63-.59.64.64,0,0,1,.71.49Zm4.46,1.11a.88.88,0,0,1,0-1.74c.52,0,.73.43.74.88s-.2.84-.7.85m4.73.57c-1.06,0-1.59-.06-2.65-.06,0-1.84,0-2.76,0-4.6,1.14,0,1.71,0,2.85.07l0,.83-1.66-.05,0,.94,1.62.05,0,.78-1.62-.05,0,1.24,1.6.05Zm-1.27-1.14,0-.67,1.62.06.06-1.22c.56.66.84,1,1.38,1.66-.62.59-.93.89-1.53,1.49l.06-1.26Zm3.93.49-.8.76-1.07-.07c.54-.54.82-.8,1.38-1.33-.48-.6-.73-.9-1.23-1.5l1.16.07.71.87.81-.74,1.12.11c-.59.5-.88.76-1.45,1.28.48.61.71.92,1.16,1.54l-1.14-.11Z" fill="#4d148c"/><path d="M37.57,43.16a19.28,19.28,0,1,0,37.22-.58" fill="none" stroke="#4d148c" stroke-linecap="round" stroke-linejoin="round" stroke-width="2"/><path d="M74.74,37.06c0-.45-.05-.53-.1-1.12" fill="#fff" stroke="#4d148c" stroke-linecap="round" stroke-linejoin="round" stroke-width="2"/><path d="M74.64,35.94c-.32-4.52-1.29-12.41-4.16-13.33-4.06-1.31-14.22-2.49-14.22-2.49S46.11,21.3,42,22.61c-2.84.92-3.82,9.13-4.15,13.67" fill="none" stroke="#4d148c" stroke-linecap="round" stroke-linejoin="round" stroke-width="2"/><path d="M33.74,43.8S45.57,39.1,56.26,39.1s22,4.69,22,4.69S77.37,31.5,56,31.5,33.74,43.8,33.74,43.8Z" fill="none" stroke="#4d148c" stroke-linecap="round" stroke-linejoin="round" stroke-width="2"/><circle cx="56" cy="56" r="55" fill="none" stroke="#4d148c" stroke-linecap="round" stroke-linejoin="round" stroke-width="2"/><path d="M15.48,93.19l6.13-21.47a5.63,5.63,0,0,1,5.1-3.85H86.35a3.55,3.55,0,0,1,3.6,4l-3,29.78" fill="none" stroke="#4d148c" stroke-linecap="round" stroke-linejoin="round" stroke-width="2"/><polyline points="27.21 102.87 32.09 88.1 54.6 84.75 49.34 109.92" fill="none" stroke="#4d148c" stroke-linecap="round" stroke-linejoin="round" stroke-width="2"/><polygon points="48.63 94.4 39.92 95.64 41.21 91.17 49.76 90.09 48.63 94.4" fill="#4d148c"/>
    </g>

    <g class="icon icon--small">
<path d="M37.57,43.16a19.28,19.28,0,1,0,37.22-.58" fill="none" stroke="#4d148c" stroke-linecap="round" stroke-linejoin="round" stroke-width="2"/><path d="M74.74,37.06c0-.45-.05-.53-.1-1.12" fill="#fff" stroke="#4d148c" stroke-linecap="round" stroke-linejoin="round" stroke-width="2"/><path d="M74.64,35.94c-.32-4.52-1.29-12.41-4.16-13.33-4.06-1.31-14.22-2.49-14.22-2.49S46.11,21.3,42,22.61c-2.84.92-3.82,9.13-4.15,13.67" fill="none" stroke="#4d148c" stroke-linecap="round" stroke-linejoin="round" stroke-width="2"/><path d="M33.74,43.8S45.57,39.1,56.26,39.1s22,4.69,22,4.69S77.37,31.5,56,31.5,33.74,43.8,33.74,43.8Z" fill="none" stroke="#4d148c" stroke-linecap="round" stroke-linejoin="round" stroke-width="2"/><circle cx="56" cy="56" r="55" fill="none" stroke="#4d148c" stroke-linecap="round" stroke-linejoin="round" stroke-width="2"/><path d="M15.48,93.19l6.13-21.47a5.63,5.63,0,0,1,5.1-3.85H86.35a3.55,3.55,0,0,1,3.6,4l-3,29.78" fill="none" stroke="#4d148c" stroke-linecap="round" stroke-linejoin="round" stroke-width="2"/><polyline points="27.21 102.87 32.09 88.1 54.6 84.75 49.34 109.92" fill="none" stroke="#4d148c" stroke-linecap="round" stroke-linejoin="round" stroke-width="2"/><polygon points="48.63 94.4 39.92 95.64 41.21 91.17 49.76 90.09 48.63 94.4" fill="#4d148c"/>
    </g>
</svg>
