<svg id="Layer_1" data-name="Layer 1" xmlns="http://www.w3.org/2000/svg" viewBox="0 0 112 112"><title>working</title>
<defs>
    <style>
        /* Hide all of the icons first. */
        .icon {
            display: none;
        }

        .icon--small {
            display: block;
        }


        /* Display the desired icon and hide the others according to the viewport's size. */
        @media screen and (min-width: 100px) {

            .icon--large {
                display: block;
            }

            .icon--small {
                display: none;
            }
        }

        @media screen and (max-width: 69px){
            .icon--small * {
                stroke-width: 3;
            }
        }
    </style>
</defs>



<g class="icon icon--large">
<path d="M55.3,39h-27V24.21a1.63,1.63,0,0,0-2.65-1l-24.22,21a1.36,1.36,0,0,0-.06,2L25.75,66.17a1.59,1.59,0,0,0,2.58-1V54" fill="none" stroke="#4d148c" stroke-linecap="round" stroke-linejoin="round" stroke-width="2"/><path d="M35,45.48V72.74H77.44V87.26c0,1.66,1.5,2.51,2.7,1.37l30.33-29.12a1.9,1.9,0,0,0-.16-2.77L79.67,29.06c-1.22-1.1-3.19.34-3.19,2l0,14.43Z" fill="none" stroke="#4d148c" stroke-linecap="round" stroke-linejoin="round" stroke-width="2"/>
</g>
<g class="icon icon--small">
<path d="M55.3,39h-27V24.21a1.63,1.63,0,0,0-2.65-1l-24.22,21a1.36,1.36,0,0,0-.06,2L25.75,66.17a1.59,1.59,0,0,0,2.58-1V54" fill="none" stroke="#4d148c" stroke-linecap="round" stroke-linejoin="round" stroke-width="2"/><path d="M35,45.48V72.74H77.44V87.26c0,1.66,1.5,2.51,2.7,1.37l30.33-29.12a1.9,1.9,0,0,0-.16-2.77L79.67,29.06c-1.22-1.1-3.19.34-3.19,2l0,14.43Z" fill="none" stroke="#4d148c" stroke-linecap="round" stroke-linejoin="round" stroke-width="2"/>
</g>

</svg>
