<svg xmlns="http://www.w3.org/2000/svg" viewBox="-2 -2 116 116">
    <defs>
        <style>
            /* Hide all of the icons first. */
            .icon {
                display: none;
            }

            .icon--small {
                display: block;
            }


            /* Display the desired icon and hide the others according to the viewport's size. */
            @media screen and (min-width: 100px) {

                .icon--large {
                    display: block;
                }

                .icon--small {
                    display: none;
                }
            }

            @media screen and (max-width: 69px){
                .icon--small * {
                    stroke-width: 3;
                }
            }
        </style>
    </defs>


    <g class="icon icon--large">
<rect x="1" y="1.05" width="110" height="82.5" rx="0.38" ry="0.38" transform="translate(112 84.6) rotate(180)" fill="none" stroke="#4d148c" stroke-linecap="round" stroke-linejoin="round" stroke-width="2"/><polygon points="104.13 71.81 104.13 7.93 7.88 7.93 7.88 71.74 104.13 71.81" fill="none" stroke="#4d148c" stroke-linecap="round" stroke-linejoin="round" stroke-width="2"/><rect x="45.69" y="83.55" width="20.63" height="20.81" fill="none" stroke="#4d148c" stroke-linecap="round" stroke-linejoin="round" stroke-width="2"/><rect x="28.5" y="104.36" width="55" height="6.58" rx="0.57" ry="0.57" fill="none" stroke="#4d148c" stroke-linecap="round" stroke-linejoin="round" stroke-width="2"/><path d="M33.87,18.29a.56.56,0,1,0-.56.57.55.55,0,0,0,.56-.57m-.71,0v.37H33v-.82h.3c.18,0,.26.08.26.23a.17.17,0,0,1-.14.17h0c.07,0,.1.07.11.19a.76.76,0,0,0,.05.23h-.14a2.56,2.56,0,0,1-.06-.28.12.12,0,0,0-.14-.1Zm.15-.11c.12,0,.15-.06.15-.12s0-.12-.15-.12h-.15v.23Zm-.7.08a.69.69,0,1,1,.69.68.67.67,0,0,1-.69-.68" fill="#4d148c"/><path d="M30.26,17l1.66-1.85H30l-.68.77-.7-.77H24.9v-.5h1.75V13.15H21.94v2.33h0a1.37,1.37,0,0,0-1.1-.46A1.85,1.85,0,0,0,19,16.41a1.92,1.92,0,0,0-2-1.4,2,2,0,0,0-1.82,1v-.75H13.53v-.81H15.4V13.15H12v5.7h1.53V16.45h1.52A2.24,2.24,0,0,0,15,17a2,2,0,0,0,2.08,2,2,2,0,0,0,2-1.29H17.73a.66.66,0,0,1-.66.32.78.78,0,0,1-.76-.78H19a1.93,1.93,0,0,0,1.87,1.76,1.31,1.31,0,0,0,1.09-.58h0v.37h6.61l.69-.77.71.77h2Zm-13.92-.51a.73.73,0,0,1,.72-.6.7.7,0,0,1,.73.6ZM21.12,18a.87.87,0,0,1-.8-.94c0-.51.27-1,.8-1s.78.49.78,1-.23.94-.78.94m5.23.59H23.41V13.43h3v.93H24.62v1h1.73v.87H24.6v1.38h1.75Zm-1.43-1.23v-.75h1.75V15.23L28.25,17l-1.58,1.76V17.34Zm4.32.32-.81.91H27.24L28.66,17,27.24,15.4h1.24l.83.91.8-.91h1.2L29.89,17l1.43,1.59H30.06Z" fill="#4d148c"/><line x1="19.94" y1="26.53" x2="53.94" y2="26.53" fill="none" stroke="#4d148c" stroke-linecap="round" stroke-linejoin="round" stroke-width="2"/><line x1="19.94" y1="34.53" x2="53.94" y2="34.53" fill="none" stroke="#4d148c" stroke-linecap="round" stroke-linejoin="round" stroke-width="2"/><line x1="19.94" y1="42.53" x2="53.94" y2="42.53" fill="none" stroke="#4d148c" stroke-linecap="round" stroke-linejoin="round" stroke-width="2"/><line x1="19.94" y1="50.53" x2="53.94" y2="50.53" fill="none" stroke="#4d148c" stroke-linecap="round" stroke-linejoin="round" stroke-width="2"/><line x1="19.94" y1="58.53" x2="53.94" y2="58.53" fill="none" stroke="#4d148c" stroke-linecap="round" stroke-linejoin="round" stroke-width="2"/><line x1="58.06" y1="26.53" x2="92.06" y2="26.53" fill="none" stroke="#4d148c" stroke-linecap="round" stroke-linejoin="round" stroke-width="2"/><line x1="58.06" y1="34.53" x2="92.06" y2="34.53" fill="none" stroke="#4d148c" stroke-linecap="round" stroke-linejoin="round" stroke-width="2"/><line x1="58.06" y1="42.53" x2="92.06" y2="42.53" fill="none" stroke="#4d148c" stroke-linecap="round" stroke-linejoin="round" stroke-width="2"/><line x1="58.06" y1="50.53" x2="92.06" y2="50.53" fill="none" stroke="#4d148c" stroke-linecap="round" stroke-linejoin="round" stroke-width="2"/><line x1="58.06" y1="58.53" x2="76.27" y2="58.53" fill="none" stroke="#4d148c" stroke-linecap="round" stroke-linejoin="round" stroke-width="2"/><circle cx="56" cy="77.53" r="2.5" fill="none" stroke="#4d148c" stroke-linecap="round" stroke-linejoin="round" stroke-width="2"/>    </g>

    <g class="icon icon--small">
<rect x="0.77" y="4" width="110.45" height="82.84" rx="0.38" ry="0.38" transform="translate(112 90.84) rotate(180)" fill="none" stroke="#4d148c" stroke-linecap="round" stroke-linejoin="round" stroke-width="2"/><polygon points="104.32 75.05 104.32 10.9 7.68 10.9 7.68 74.98 104.32 75.05" fill="none" stroke="#4d148c" stroke-linecap="round" stroke-linejoin="round" stroke-width="2"/><rect x="45.65" y="86.84" width="20.71" height="10.35" fill="none" stroke="#4d148c" stroke-linecap="round" stroke-linejoin="round" stroke-width="2"/><rect x="28.39" y="97.19" width="55.23" height="13.81" rx="0.57" ry="0.57" fill="none" stroke="#4d148c" stroke-linecap="round" stroke-linejoin="round" stroke-width="2"/>
    </g>
</svg>
