<svg id="Layer_1" data-name="Layer 1" xmlns="http://www.w3.org/2000/svg" viewBox="0 0 112 112"><title>working 2</title>
<defs>
    <style>
        /* Hide all of the icons first. */
        .icon {
            display: none;
        }

        .icon--small {
            display: block;
        }


        /* Display the desired icon and hide the others according to the viewport's size. */
        @media screen and (min-width: 100px) {

            .icon--large {
                display: block;
            }

            .icon--small {
                display: none;
            }
        }

        @media screen and (max-width: 69px){
            .icon--small * {
                stroke-width: 3;
            }
        }
    </style>
</defs>


<g class="icon icon--large">
<polygon points="96.81 108.13 96.81 8.21 96.81 1 91.64 1 42.36 1 40.03 1 40.03 5.88 40.03 24.39 15.19 24.39 15.19 26.24 15.19 108.13 15.19 111 18.12 111 96.12 111 96.81 111 96.81 108.13" fill="none" stroke="#4d148c" stroke-linecap="round" stroke-linejoin="round" stroke-width="2"/><line x1="27.61" y1="43.58" x2="52.45" y2="43.58" fill="none" stroke="#4d148c" stroke-linecap="round" stroke-linejoin="round" stroke-width="2"/><line x1="27.61" y1="57.77" x2="84.39" y2="57.77" fill="none" stroke="#4d148c" stroke-linecap="round" stroke-linejoin="round" stroke-width="2"/><line x1="27.61" y1="71.97" x2="84.39" y2="71.97" fill="none" stroke="#4d148c" stroke-linecap="round" stroke-linejoin="round" stroke-width="2"/><line x1="27.61" y1="86.16" x2="70.19" y2="86.16" fill="none" stroke="#4d148c" stroke-linecap="round" stroke-linejoin="round" stroke-width="2"/><line x1="63.1" y1="43.58" x2="84.39" y2="43.58" fill="none" stroke="#4d148c" stroke-linecap="round" stroke-linejoin="round" stroke-width="2"/><line x1="15.19" y1="24.39" x2="40.03" y2="1" fill="none" stroke="#4d148c" stroke-linecap="round" stroke-linejoin="round" stroke-width="2"/>
</g>
<g class="icon icon--small">
<polygon points="96.81 108.13 96.81 8.21 96.81 1 91.64 1 42.36 1 40.03 1 40.03 5.88 40.03 24.39 15.19 24.39 15.19 26.24 15.19 108.13 15.19 111 18.12 111 96.12 111 96.81 111 96.81 108.13" fill="none" stroke="#4d148c" stroke-linecap="round" stroke-linejoin="round" stroke-width="2"/><line x1="27.61" y1="43.58" x2="52.45" y2="43.58" fill="none" stroke="#4d148c" stroke-linecap="round" stroke-linejoin="round" stroke-width="2"/><line x1="27.61" y1="57.77" x2="84.39" y2="57.77" fill="none" stroke="#4d148c" stroke-linecap="round" stroke-linejoin="round" stroke-width="2"/><line x1="27.61" y1="71.97" x2="84.39" y2="71.97" fill="none" stroke="#4d148c" stroke-linecap="round" stroke-linejoin="round" stroke-width="2"/><line x1="27.61" y1="86.16" x2="70.19" y2="86.16" fill="none" stroke="#4d148c" stroke-linecap="round" stroke-linejoin="round" stroke-width="2"/><line x1="63.1" y1="43.58" x2="84.39" y2="43.58" fill="none" stroke="#4d148c" stroke-linecap="round" stroke-linejoin="round" stroke-width="2"/><line x1="15.19" y1="24.39" x2="40.03" y2="1" fill="none" stroke="#4d148c" stroke-linecap="round" stroke-linejoin="round" stroke-width="2"/>
</g>

</svg>
