<svg id="Layer_1" data-name="Layer 1" xmlns="http://www.w3.org/2000/svg" viewBox="0 0 112 112"><title>working 2</title>
<defs>
    <style>
        /* Hide all of the icons first. */
        .icon {
            display: none;
        }

        .icon--small {
            display: block;
        }


        /* Display the desired icon and hide the others according to the viewport's size. */
        @media screen and (min-width: 100px) {

            .icon--large {
                display: block;
            }

            .icon--small {
                display: none;
            }
        }

        @media screen and (max-width: 69px){
            .icon--small * {
                stroke-width: 3;
            }
        }
    </style>
</defs>

<g class="icon icon--large">
<rect x="9.59" y="20.41" width="71.18" height="90.59" rx="0.09" ry="0.09" fill="none" stroke="#4d148c" stroke-linecap="round" stroke-linejoin="round" stroke-width="2"/><line x1="20.92" y1="36.59" x2="40.56" y2="36.59" fill="none" stroke="#4d148c" stroke-linecap="round" stroke-linejoin="round" stroke-width="2"/><line x1="20.92" y1="52.76" x2="69.45" y2="52.76" fill="none" stroke="#4d148c" stroke-linecap="round" stroke-linejoin="round" stroke-width="2"/><line x1="20.92" y1="72.18" x2="69.45" y2="72.18" fill="none" stroke="#4d148c" stroke-linecap="round" stroke-linejoin="round" stroke-width="2"/><line x1="20.92" y1="91.59" x2="69.45" y2="91.59" fill="none" stroke="#4d148c" stroke-linecap="round" stroke-linejoin="round" stroke-width="2"/><line x1="49.8" y1="36.59" x2="69.45" y2="36.59" fill="none" stroke="#4d148c" stroke-linecap="round" stroke-linejoin="round" stroke-width="2"/><path d="M80.77,101.49H92a.09.09,0,0,0,.09-.09V11A.09.09,0,0,0,92,10.9H21a.09.09,0,0,0-.09.09v8" fill="none" stroke="#4d148c" stroke-linecap="round" stroke-linejoin="round" stroke-width="2"/><path d="M92.09,91.59h10.22a.09.09,0,0,0,.09-.09V1.09a.09.09,0,0,0-.09-.09h-71a.09.09,0,0,0-.09.09V10.3" fill="none" stroke="#4d148c" stroke-linecap="round" stroke-linejoin="round" stroke-width="2"/>
</g>
<g class="icon icon--small">
<rect x="9.59" y="20.41" width="71.18" height="90.59" rx="0.09" ry="0.09" fill="none" stroke="#4d148c" stroke-linecap="round" stroke-linejoin="round" stroke-width="2"/><line x1="20.92" y1="36.59" x2="40.56" y2="36.59" fill="none" stroke="#4d148c" stroke-linecap="round" stroke-linejoin="round" stroke-width="2"/><line x1="20.92" y1="52.76" x2="69.45" y2="52.76" fill="none" stroke="#4d148c" stroke-linecap="round" stroke-linejoin="round" stroke-width="2"/><line x1="20.92" y1="72.18" x2="69.45" y2="72.18" fill="none" stroke="#4d148c" stroke-linecap="round" stroke-linejoin="round" stroke-width="2"/><line x1="20.92" y1="91.59" x2="69.45" y2="91.59" fill="none" stroke="#4d148c" stroke-linecap="round" stroke-linejoin="round" stroke-width="2"/><line x1="49.8" y1="36.59" x2="69.45" y2="36.59" fill="none" stroke="#4d148c" stroke-linecap="round" stroke-linejoin="round" stroke-width="2"/><path d="M80.77,101.49H92a.09.09,0,0,0,.09-.09V11A.09.09,0,0,0,92,10.9H21a.09.09,0,0,0-.09.09v8" fill="none" stroke="#4d148c" stroke-linecap="round" stroke-linejoin="round" stroke-width="2"/><path d="M92.09,91.59h10.22a.09.09,0,0,0,.09-.09V1.09a.09.09,0,0,0-.09-.09h-71a.09.09,0,0,0-.09.09V10.3" fill="none" stroke="#4d148c" stroke-linecap="round" stroke-linejoin="round" stroke-width="2"/>
</g>

</svg>
