<svg xmlns="http://www.w3.org/2000/svg" viewBox="-2 -2 116 116">
    <defs>
        <style>
            /* Hide all of the icons first. */
            .icon {
                display: none;
            }

            .icon--small {
                display: block;
            }


            /* Display the desired icon and hide the others according to the viewport's size. */
            @media screen and (min-width: 100px) {

                .icon--large {
                    display: block;
                }

                .icon--small {
                    display: none;
                }
            }

            @media screen and (max-width: 69px){
                .icon--small * {
                    stroke-width: 3;
                }
            }
        </style>
    </defs>


    <g class="icon icon--large">
<rect x="22.35" y="1.09" width="67.31" height="109.82" fill="none" stroke="#4d148c" stroke-linecap="round" stroke-linejoin="round" stroke-width="2"/><rect x="32.97" y="11.72" width="46.05" height="28.34" fill="none" stroke="#4d148c" stroke-linecap="round" stroke-linejoin="round" stroke-width="2"/><line x1="41.83" y1="22.35" x2="70.17" y2="22.35" fill="none" stroke="#4d148c" stroke-linecap="round" stroke-linejoin="round" stroke-width="2"/><line x1="32.97" y1="80.8" x2="32.97" y2="52.46" fill="none" stroke="#4d148c" stroke-linecap="round" stroke-linejoin="round" stroke-width="2"/><line x1="79.03" y1="80.8" x2="79.03" y2="52.46" fill="none" stroke="#4d148c" stroke-linecap="round" stroke-linejoin="round" stroke-width="2"/><line x1="23.12" y1="11.72" x2="88.88" y2="11.72" fill="none" stroke="#4d148c" stroke-linecap="round" stroke-linejoin="round" stroke-width="2"/><path d="M78.75,100.77a1.15,1.15,0,1,0-1.15,1.17,1.13,1.13,0,0,0,1.15-1.17m-1.46.06v.77H77v-1.7h.62c.36,0,.53.16.53.47a.35.35,0,0,1-.3.36h0c.14,0,.2.15.23.38a1.58,1.58,0,0,0,.11.48h-.3a5.3,5.3,0,0,1-.11-.57.25.25,0,0,0-.29-.2Zm.31-.22c.24,0,.31-.13.31-.24s-.07-.24-.31-.24h-.31v.48Zm-1.44.16a1.43,1.43,0,1,1,1.43,1.4,1.39,1.39,0,0,1-1.43-1.4" fill="#4d148c"/><path d="M71.3,98.08l3.43-3.82h-4l-1.39,1.58-1.45-1.58H60.23v-1h3.61V90.17H54.12V95h0A2.82,2.82,0,0,0,51.81,94a3.83,3.83,0,0,0-3.68,2.87A4,4,0,0,0,44.05,94a4.15,4.15,0,0,0-3.76,2V94.46H36.75V92.79h3.86V90.17h-7v11.76h3.15V97H39.9a4.63,4.63,0,0,0-.15,1.16,4.13,4.13,0,0,0,4.3,4.18,4.05,4.05,0,0,0,4.07-2.67h-2.7a1.36,1.36,0,0,1-1.37.67,1.62,1.62,0,0,1-1.58-1.6H48a4,4,0,0,0,3.87,3.63,2.7,2.7,0,0,0,2.24-1.19h0v.76H67.77l1.42-1.6,1.47,1.6h4.15ZM42.56,97a1.52,1.52,0,0,1,1.49-1.23A1.44,1.44,0,0,1,45.56,97Zm9.87,3.12a1.79,1.79,0,0,1-1.66-1.93c0-1.06.55-2.07,1.66-2.07s1.6,1,1.6,2.07-.48,1.93-1.6,1.93m10.8,1.22H57.16V90.74h6.11v1.92H59.66v2.16h3.57v1.79H59.62v2.85h3.61Zm-3-2.54V97.26h3.61V94.46l3.26,3.64-3.26,3.64V98.82Zm8.92.66-1.68,1.88H65.06L68,98.09l-2.93-3.27h2.55l1.71,1.87L71,94.83h2.48l-2.92,3.25,3,3.28H70.88Z" fill="#4d148c"/>
    </g>

    <g class="icon icon--small">
<rect x="22.35" y="1.09" width="67.31" height="109.82" fill="none" stroke="#4d148c" stroke-linecap="round" stroke-linejoin="round" stroke-width="2"/><rect x="32.97" y="11.72" width="46.05" height="28.34" fill="none" stroke="#4d148c" stroke-linecap="round" stroke-linejoin="round" stroke-width="2"/><line x1="41.83" y1="22.35" x2="70.17" y2="22.35" fill="none" stroke="#4d148c" stroke-linecap="round" stroke-linejoin="round" stroke-width="2"/><line x1="32.97" y1="80.8" x2="32.97" y2="52.46" fill="none" stroke="#4d148c" stroke-linecap="round" stroke-linejoin="round" stroke-width="2"/><line x1="79.03" y1="80.8" x2="79.03" y2="52.46" fill="none" stroke="#4d148c" stroke-linecap="round" stroke-linejoin="round" stroke-width="2"/><line x1="23.12" y1="11.72" x2="88.88" y2="11.72" fill="none" stroke="#4d148c" stroke-linecap="round" stroke-linejoin="round" stroke-width="2"/>
    </g>
</svg>
