<svg xmlns="http://www.w3.org/2000/svg" viewBox="-2 -2 116 116">
    <defs>
        <style>
            /* Hide all of the icons first. */
            .icon {
                display: none;
            }

            .icon--small {
                display: block;
            }


            /* Display the desired icon and hide the others according to the viewport's size. */
            @media screen and (min-width: 100px) {

                .icon--large {
                    display: block;
                }

                .icon--small {
                    display: none;
                }
            }

            @media screen and (max-width: 69px){
                .icon--small * {
                    stroke-width: 3;
                }
            }
        </style>
    </defs>


    <g class="icon icon--large">
<polyline points="75.09 32.31 111 32.31 111 96.18 1 96.18 1 32.31 37.02 32.31" fill="none" stroke="#4d148c" stroke-linecap="round" stroke-linejoin="round" stroke-width="2"/><path d="M1,32.31l53.58,42a1.63,1.63,0,0,0,2,0l54.38-42" fill="none" stroke="#4d148c" stroke-linecap="round" stroke-linejoin="round" stroke-width="2"/><line x1="1" y1="96.18" x2="36.63" y2="60.38" fill="none" stroke="#4d148c" stroke-linecap="round" stroke-linejoin="round" stroke-width="2"/><line x1="111" y1="96.18" x2="75.09" y2="60.2" fill="none" stroke="#4d148c" stroke-linecap="round" stroke-linejoin="round" stroke-width="2"/><path d="M63.59,47.83a17.78,17.78,0,0,1-8.69,2c-8,0-14.79-5.86-14.79-15.22,0-10.05,7-18.74,17.81-18.74,8.49,0,14.2,6,14.2,14.1,0,7.32-4.1,11.61-8.69,11.61-2,0-3.76-1.32-3.61-4.29h-.2c-1.71,2.88-4,4.29-6.88,4.29s-5.27-2.29-5.27-6.15A11.52,11.52,0,0,1,59.05,23.82a12.86,12.86,0,0,1,5.22,1l-1.66,8.83c-.73,3.71-.15,5.42,1.46,5.47,2.49,0,5.27-3.27,5.27-8.93,0-7.08-4.25-12.15-11.81-12.15-8,0-14.64,6.29-14.64,16.2,0,8.15,5.32,13.17,12.54,13.17a15.21,15.21,0,0,0,7.37-1.71ZM60.91,26.75a8.48,8.48,0,0,0-2.44-.34c-4.29,0-7.76,4-7.76,8.78,0,2.15,1.07,3.71,3.22,3.71,2.83,0,5.42-3.61,6-6.64Z" fill="#4d148c"/>
    </g>

    <g class="icon icon--small">
<rect x="1" y="24.06" width="110" height="63.87" fill="none" stroke="#4d148c" stroke-linecap="round" stroke-linejoin="round" stroke-width="2"/><path d="M1,24.06l53.87,42a1.63,1.63,0,0,0,2,0l54.08-42" fill="none" stroke="#4d148c" stroke-linecap="round" stroke-linejoin="round" stroke-width="2"/><line x1="110.58" y1="87.5" x2="75.09" y2="51.96" fill="none" stroke="#4d148c" stroke-linecap="round" stroke-linejoin="round" stroke-width="2"/><line x1="1.83" y1="87.08" x2="36.58" y2="52.25" fill="none" stroke="#4d148c" stroke-linecap="round" stroke-linejoin="round" stroke-width="2"/>
    </g>
</svg>
