<svg id="Layer_1" data-name="Layer 1" xmlns="http://www.w3.org/2000/svg" viewBox="0 0 112 112"><title>working 2</title>

<defs>
    <style>
        /* Hide all of the icons first. */
        .icon {
            display: none;
        }

        .icon--small {
            display: block;
        }


        /* Display the desired icon and hide the others according to the viewport's size. */
        @media screen and (min-width: 100px) {

            .icon--large {
                display: block;
            }

            .icon--small {
                display: none;
            }
        }

        @media screen and (max-width: 69px){
            .icon--small * {
                stroke-width: 3;
            }
        }
    </style>
</defs>

<g class="icon icon--large">
<polyline points="56 25.95 81.86 38.39 81.86 63.27 56 75.71 30.14 63.27 30.14 38.39" fill="none" stroke="#4d148c" stroke-linecap="round" stroke-linejoin="round" stroke-width="2"/><polyline points="30.14 13.51 56 1.07 81.86 13.51" fill="none" stroke="#4d148c" stroke-linecap="round" stroke-linejoin="round" stroke-width="2"/><line x1="56" y1="1.07" x2="81.86" y2="13.51" fill="none" stroke="#4d148c" stroke-linecap="round" stroke-linejoin="round" stroke-width="2"/><polyline points="82.14 13.81 56 25.95 56 50.83" fill="none" stroke="#4d148c" stroke-linecap="round" stroke-linejoin="round" stroke-width="2"/><line x1="68.07" y1="7.29" x2="42.58" y2="19.42" fill="none" stroke="#4d148c" stroke-linecap="round" stroke-linejoin="round" stroke-width="2"/><polyline points="107.71 50.83 107.71 75.71 81.86 88.15" fill="none" stroke="#4d148c" stroke-linecap="round" stroke-linejoin="round" stroke-width="2"/><line x1="107.71" y1="75.71" x2="81.86" y2="88.15" fill="none" stroke="#4d148c" stroke-linecap="round" stroke-linejoin="round" stroke-width="2"/><line x1="81.86" y1="63.27" x2="56" y2="50.83" fill="none" stroke="#4d148c" stroke-linecap="round" stroke-linejoin="round" stroke-width="2"/><line x1="81.86" y1="63.27" x2="81.86" y2="87.63" fill="none" stroke="#4d148c" stroke-linecap="round" stroke-linejoin="round" stroke-width="2"/><polyline points="30.14 88.15 4.29 75.71 4.29 50.83" fill="none" stroke="#4d148c" stroke-linecap="round" stroke-linejoin="round" stroke-width="2"/><polyline points="30.14 88.15 4.29 75.71 4.29 50.83" fill="none" stroke="#4d148c" stroke-linecap="round" stroke-linejoin="round" stroke-width="2"/><line x1="30.14" y1="63.27" x2="30.14" y2="87.63" fill="none" stroke="#4d148c" stroke-linecap="round" stroke-linejoin="round" stroke-width="2"/><polyline points="56 25.95 81.86 38.39 81.86 63.27 56 75.71 30.14 63.27 30.14 38.39" fill="none" stroke="#4d148c" stroke-linecap="round" stroke-linejoin="round" stroke-width="2"/><line x1="56" y1="50.83" x2="56" y2="25.95" fill="none" stroke="#4d148c" stroke-linecap="round" stroke-linejoin="round" stroke-width="2"/><polyline points="81.86 13.51 107.71 25.95 107.71 50.83 81.86 63.27" fill="none" stroke="#4d148c" stroke-linecap="round" stroke-linejoin="round" stroke-width="2"/><line x1="56" y1="50.83" x2="56" y2="25.95" fill="none" stroke="#4d148c" stroke-linecap="round" stroke-linejoin="round" stroke-width="2"/><polyline points="81.86 13.51 107.71 25.95 107.71 50.83" fill="none" stroke="#4d148c" stroke-linecap="round" stroke-linejoin="round" stroke-width="2"/><polyline points="107.71 25.95 81.86 38.39 81.86 64.36" fill="none" stroke="#4d148c" stroke-linecap="round" stroke-linejoin="round" stroke-width="2"/><line x1="94.5" y1="19.59" x2="68.72" y2="31.86" fill="none" stroke="#4d148c" stroke-linecap="round" stroke-linejoin="round" stroke-width="2"/><polygon points="4.29 25.95 30.14 13.51 56 25.95 56 50.83 30.14 63.27 4.29 50.83 4.29 25.95" fill="none" stroke="#4d148c" stroke-linecap="round" stroke-linejoin="round" stroke-width="2"/><line x1="4.29" y1="50.83" x2="4.29" y2="25.95" fill="none" stroke="#4d148c" stroke-linecap="round" stroke-linejoin="round" stroke-width="2"/><polyline points="30.14 13.51 56 25.95 56 50.83 30.14 63.27" fill="none" stroke="#4d148c" stroke-linecap="round" stroke-linejoin="round" stroke-width="2"/><line x1="30.14" y1="38.39" x2="4.29" y2="25.95" fill="none" stroke="#4d148c" stroke-linecap="round" stroke-linejoin="round" stroke-width="2"/><polyline points="56 25.95 30.14 38.39 30.14 64.36" fill="none" stroke="#4d148c" stroke-linecap="round" stroke-linejoin="round" stroke-width="2"/><line x1="42.58" y1="19.42" x2="16.43" y2="31.86" fill="none" stroke="#4d148c" stroke-linecap="round" stroke-linejoin="round" stroke-width="2"/><polyline points="81.86 63.27 81.86 88.15 56 100.59 30.14 88.15 30.14 63.27 56 50.83" fill="none" stroke="#4d148c" stroke-linecap="round" stroke-linejoin="round" stroke-width="2"/><polyline points="81.86 63.27 81.86 88.15 56 100.59 30.14 88.15 30.14 63.27 56 50.83" fill="none" stroke="#4d148c" stroke-linecap="round" stroke-linejoin="round" stroke-width="2"/><line x1="56" y1="100.55" x2="56" y2="75.71" fill="none" stroke="#4d148c" stroke-linecap="round" stroke-linejoin="round" stroke-width="2"/><line x1="68.5" y1="56.84" x2="42.58" y2="69.18" fill="none" stroke="#4d148c" stroke-linecap="round" stroke-linejoin="round" stroke-width="2"/><polygon points="107.71 86.05 56 110.93 4.29 86.05 4.29 75.71 56 100.59 107.71 75.71 107.71 86.05" fill="none" stroke="#4d148c" stroke-linecap="round" stroke-linejoin="round" stroke-width="2"/>
</g>

<g class="icon icon--small">
<polyline points="56 25.95 81.86 38.39 81.86 63.27 56 75.71 30.14 63.27 30.14 38.39" fill="none" stroke="#4d148c" stroke-linecap="round" stroke-linejoin="round" stroke-width="2"/><polyline points="30.14 13.51 56 1.07 81.86 13.51" fill="none" stroke="#4d148c" stroke-linecap="round" stroke-linejoin="round" stroke-width="2"/><line x1="56" y1="1.07" x2="81.86" y2="13.51" fill="none" stroke="#4d148c" stroke-linecap="round" stroke-linejoin="round" stroke-width="2"/><polyline points="82.14 13.81 56 25.95 56 50.83" fill="none" stroke="#4d148c" stroke-linecap="round" stroke-linejoin="round" stroke-width="2"/><line x1="68.07" y1="7.29" x2="42.58" y2="19.42" fill="none" stroke="#4d148c" stroke-linecap="round" stroke-linejoin="round" stroke-width="2"/><polyline points="107.71 50.83 107.71 75.71 81.86 88.15" fill="none" stroke="#4d148c" stroke-linecap="round" stroke-linejoin="round" stroke-width="2"/><line x1="107.71" y1="75.71" x2="81.86" y2="88.15" fill="none" stroke="#4d148c" stroke-linecap="round" stroke-linejoin="round" stroke-width="2"/><line x1="81.86" y1="63.27" x2="56" y2="50.83" fill="none" stroke="#4d148c" stroke-linecap="round" stroke-linejoin="round" stroke-width="2"/><line x1="81.86" y1="63.27" x2="81.86" y2="87.63" fill="none" stroke="#4d148c" stroke-linecap="round" stroke-linejoin="round" stroke-width="2"/><polyline points="30.14 88.15 4.29 75.71 4.29 50.83" fill="none" stroke="#4d148c" stroke-linecap="round" stroke-linejoin="round" stroke-width="2"/><polyline points="30.14 88.15 4.29 75.71 4.29 50.83" fill="none" stroke="#4d148c" stroke-linecap="round" stroke-linejoin="round" stroke-width="2"/><line x1="30.14" y1="63.27" x2="30.14" y2="87.63" fill="none" stroke="#4d148c" stroke-linecap="round" stroke-linejoin="round" stroke-width="2"/><polyline points="56 25.95 81.86 38.39 81.86 63.27 56 75.71 30.14 63.27 30.14 38.39" fill="none" stroke="#4d148c" stroke-linecap="round" stroke-linejoin="round" stroke-width="2"/><line x1="56" y1="50.83" x2="56" y2="25.95" fill="none" stroke="#4d148c" stroke-linecap="round" stroke-linejoin="round" stroke-width="2"/><polyline points="81.86 13.51 107.71 25.95 107.71 50.83 81.86 63.27" fill="none" stroke="#4d148c" stroke-linecap="round" stroke-linejoin="round" stroke-width="2"/><line x1="56" y1="50.83" x2="56" y2="25.95" fill="none" stroke="#4d148c" stroke-linecap="round" stroke-linejoin="round" stroke-width="2"/><polyline points="81.86 13.51 107.71 25.95 107.71 50.83" fill="none" stroke="#4d148c" stroke-linecap="round" stroke-linejoin="round" stroke-width="2"/><polyline points="107.71 25.95 81.86 38.39 81.86 64.36" fill="none" stroke="#4d148c" stroke-linecap="round" stroke-linejoin="round" stroke-width="2"/><line x1="94.5" y1="19.59" x2="68.72" y2="31.86" fill="none" stroke="#4d148c" stroke-linecap="round" stroke-linejoin="round" stroke-width="2"/><polygon points="4.29 25.95 30.14 13.51 56 25.95 56 50.83 30.14 63.27 4.29 50.83 4.29 25.95" fill="none" stroke="#4d148c" stroke-linecap="round" stroke-linejoin="round" stroke-width="2"/><line x1="4.29" y1="50.83" x2="4.29" y2="25.95" fill="none" stroke="#4d148c" stroke-linecap="round" stroke-linejoin="round" stroke-width="2"/><polyline points="30.14 13.51 56 25.95 56 50.83 30.14 63.27" fill="none" stroke="#4d148c" stroke-linecap="round" stroke-linejoin="round" stroke-width="2"/><line x1="30.14" y1="38.39" x2="4.29" y2="25.95" fill="none" stroke="#4d148c" stroke-linecap="round" stroke-linejoin="round" stroke-width="2"/><polyline points="56 25.95 30.14 38.39 30.14 64.36" fill="none" stroke="#4d148c" stroke-linecap="round" stroke-linejoin="round" stroke-width="2"/><line x1="42.58" y1="19.42" x2="16.43" y2="31.86" fill="none" stroke="#4d148c" stroke-linecap="round" stroke-linejoin="round" stroke-width="2"/><polyline points="81.86 63.27 81.86 88.15 56 100.59 30.14 88.15 30.14 63.27 56 50.83" fill="none" stroke="#4d148c" stroke-linecap="round" stroke-linejoin="round" stroke-width="2"/><polyline points="81.86 63.27 81.86 88.15 56 100.59 30.14 88.15 30.14 63.27 56 50.83" fill="none" stroke="#4d148c" stroke-linecap="round" stroke-linejoin="round" stroke-width="2"/><line x1="56" y1="100.55" x2="56" y2="75.71" fill="none" stroke="#4d148c" stroke-linecap="round" stroke-linejoin="round" stroke-width="2"/><line x1="68.5" y1="56.84" x2="42.58" y2="69.18" fill="none" stroke="#4d148c" stroke-linecap="round" stroke-linejoin="round" stroke-width="2"/><polygon points="107.71 86.05 56 110.93 4.29 86.05 4.29 75.71 56 100.59 107.71 75.71 107.71 86.05" fill="none" stroke="#4d148c" stroke-linecap="round" stroke-linejoin="round" stroke-width="2"/>
</g>

</svg>
