<svg xmlns="http://www.w3.org/2000/svg" viewBox="-2 -2 116 116">
    <defs>
        <style>
            /* Hide all of the icons first. */
            .icon {
                display: none;
            }

            .icon--small {
                display: block;
            }


            /* Display the desired icon and hide the others according to the viewport's size. */
            @media screen and (min-width: 100px) {

                .icon--large {
                    display: block;
                }

                .icon--small {
                    display: none;
                }
            }

            @media screen and (max-width: 69px){
                .icon--small *{
                    stroke-width: 3;
                }
            }
        </style>
    </defs>


    <g class="icon icon--large">
<circle cx="56" cy="56" r="55" fill="none" stroke="#4d148c" stroke-miterlimit="10" stroke-width="2"/><path d="M54.22,64.63a22.63,22.63,0,0,1,.35-4.6,7.9,7.9,0,0,1,2.19-4q1-1.06,2.12-2.07a28.05,28.05,0,0,0,2-2,12.36,12.36,0,0,0,1.54-2.14,4.81,4.81,0,0,0,.62-2.39,5.62,5.62,0,0,0-.49-2.32,5.45,5.45,0,0,0-1.41-1.89,6.72,6.72,0,0,0-2.26-1.27,9.37,9.37,0,0,0-3-.46,7.41,7.41,0,0,0-3,.6,6.23,6.23,0,0,0-2.24,1.66,7.25,7.25,0,0,0-1.36,2.46,8.94,8.94,0,0,0-.42,3.06H46a9.8,9.8,0,0,1,.51-4.19,8.8,8.8,0,0,1,2-3.25,9.32,9.32,0,0,1,3.25-2.09A11.31,11.31,0,0,1,56,39a13.3,13.3,0,0,1,4.21.62,9.08,9.08,0,0,1,3.15,1.75,7.55,7.55,0,0,1,2,2.74A8.91,8.91,0,0,1,66,47.64a6.48,6.48,0,0,1-.9,3.48,13.92,13.92,0,0,1-2.19,2.69q-1.29,1.24-2.67,2.51a14.55,14.55,0,0,0-2.39,2.83A5.37,5.37,0,0,0,57,61.8q-.09,1.45-.09,2.83ZM53.95,73V69h3.36V73Z" fill="#4d148c"/><circle cx="56" cy="56" r="50.47" fill="none" stroke="#4d148c" stroke-miterlimit="10" stroke-width="2"/>
    </g>

    <g class="icon icon--small">
<circle cx="56" cy="56" r="55" fill="none" stroke="#4d148c" stroke-miterlimit="10" stroke-width="2"/><path d="M54.22,64.63a22.63,22.63,0,0,1,.35-4.6,7.9,7.9,0,0,1,2.19-4q1-1.06,2.12-2.07a28.05,28.05,0,0,0,2-2,12.36,12.36,0,0,0,1.54-2.14,4.81,4.81,0,0,0,.62-2.39,5.62,5.62,0,0,0-.49-2.32,5.45,5.45,0,0,0-1.41-1.89,6.72,6.72,0,0,0-2.26-1.27,9.37,9.37,0,0,0-3-.46,7.41,7.41,0,0,0-3,.6,6.23,6.23,0,0,0-2.24,1.66,7.25,7.25,0,0,0-1.36,2.46,8.94,8.94,0,0,0-.42,3.06H46a9.8,9.8,0,0,1,.51-4.19,8.8,8.8,0,0,1,2-3.25,9.32,9.32,0,0,1,3.25-2.09A11.31,11.31,0,0,1,56,39a13.3,13.3,0,0,1,4.21.62,9.08,9.08,0,0,1,3.15,1.75,7.55,7.55,0,0,1,2,2.74A8.91,8.91,0,0,1,66,47.64a6.48,6.48,0,0,1-.9,3.48,13.92,13.92,0,0,1-2.19,2.69q-1.29,1.24-2.67,2.51a14.55,14.55,0,0,0-2.39,2.83A5.37,5.37,0,0,0,57,61.8q-.09,1.45-.09,2.83ZM53.95,73V69h3.36V73Z" fill="#4d148c"/>
    </g>
</svg>
