<svg xmlns="http://www.w3.org/2000/svg" viewBox="-2 -2 116 116">
    <defs>
        <style>
            /* Hide all of the icons first. */
            .icon {
                display: none;
            }

            .icon--small {
                display: block;
            }


            /* Display the desired icon and hide the others according to the viewport's size. */
            @media screen and (min-width: 100px) {

                .icon--large {
                    display: block;
                }

                .icon--small {
                    display: none;
                }
            }

            @media screen and (max-width: 69px){
                .icon--small *{
                    stroke-width: 3;
                }
            }
        </style>
    </defs>


    <g class="icon icon--large">
        <path d="M56,97.93C43.88,81.34,21,55,21,34.35,21,15.93,36.67,1,56,1S91,15.93,91,34.35C91,55,68.12,81.34,56,97.93Z" fill="none" stroke="#4d148c" stroke-miterlimit="10" stroke-width="2"/><circle cx="56.74" cy="32.96" r="12" fill="none" stroke="#4d148c" stroke-miterlimit="10" stroke-width="2"/><path d="M49.57,88.92C33.31,89.88,21,94.41,21,99.86,21,106,36.67,111,56,111s35-5,35-11.14c0-5.44-12.25-10-28.44-10.94" fill="none" stroke="#4d148c" stroke-miterlimit="10" stroke-width="2"/>
    </g>

    <g class="icon icon--small">
        <path d="M56,110.46C42.5,91.75,17,62.05,17,38.77,17,18,34.46,1.17,56,1.17S95,18,95,38.77C95,62.05,69.5,91.75,56,110.46Z" fill="none" stroke="#4d148c" stroke-miterlimit="10" stroke-width="2" class="smallstroke" /><ellipse cx="56" cy="36.94" rx="13.83" ry="13.83" fill="none" stroke="#4d148c" stroke-miterlimit="10" stroke-width="2" class="smallstroke" />
    </g>
</svg>
