<svg xmlns="http://www.w3.org/2000/svg" viewBox="-2 -2 116 116">
    <defs>
        <style>
            /* Hide all of the icons first. */
            .icon {
                display: none;
            }

            .icon--small {
                display: block;
            }


            /* Display the desired icon and hide the others according to the viewport's size. */
            @media screen and (min-width: 100px) {

                .icon--large {
                    display: block;
                }

                .icon--small {
                    display: none;
                }
            }

            @media screen and (max-width: 69px){
                .icon--small *{
                    stroke-width: 3;
                }
            }
        </style>
    </defs>


    <g class="icon icon--large">
<rect x="22.29" y="1" width="67.42" height="110" rx="1.13" ry="1.13" transform="translate(112 112) rotate(180)" fill="none" stroke="#4d148c" stroke-linecap="round" stroke-linejoin="round" stroke-width="2"/><circle cx="55.48" cy="101.61" r="2.61" fill="#4d148c"/><circle cx="55.48" cy="101.61" r="2.61" fill="#4d148c"/><path d="M45.54,14.22a.32.32,0,1,0-.32.33.31.31,0,0,0,.32-.33m-.4,0v.21h-.07V14h.17c.1,0,.15,0,.15.13a.1.1,0,0,1-.08.1h0s.05,0,.06.11a.44.44,0,0,0,0,.13h-.08a1.47,1.47,0,0,1,0-.16.07.07,0,0,0-.08-.05Zm.09-.06c.07,0,.09,0,.09-.07s0-.07-.09-.07h-.09v.13Zm-.4,0a.4.4,0,1,1,.4.39.39.39,0,0,1-.4-.39" fill="#4d148c"/><path d="M43.48,13.48l1-1.06H43.32l-.39.44-.4-.44H40.41v-.28h1v-.85h-2.7v1.33h0a.78.78,0,0,0-.63-.26,1.06,1.06,0,0,0-1,.79,1.1,1.1,0,0,0-1.13-.8,1.15,1.15,0,0,0-1,.56v-.43h-1V12H35v-.73H33v3.26h.87V13.17h.87a1.28,1.28,0,0,0,0,.32,1.14,1.14,0,0,0,1.19,1.16,1.12,1.12,0,0,0,1.13-.74h-.75a.38.38,0,0,1-.38.19.45.45,0,0,1-.44-.44H37a1.1,1.1,0,0,0,1.07,1,.75.75,0,0,0,.62-.33h0v.21H42.5l.39-.44.41.44h1.15Zm-8-.29a.42.42,0,0,1,.41-.34.4.4,0,0,1,.42.34Zm2.73.86a.5.5,0,0,1-.46-.54c0-.29.15-.57.46-.57s.44.28.44.57-.13.54-.44.54m3,.34H39.56V11.44h1.69V12h-1v.6h1v.5h-1v.79h1Zm-.82-.7v-.43h1v-.78l.9,1-.9,1v-.81Zm2.47.18-.46.52h-.68l.81-.91-.81-.91h.71l.47.52.46-.52h.69l-.81.9.82.91h-.72Z" fill="#4d148c"/><line x1="29" y1="18.83" x2="83" y2="18.83" fill="none" stroke="#4d148c" stroke-linecap="round" stroke-linejoin="round" stroke-width="2"/><line x1="33" y1="39.5" x2="79" y2="39.5" fill="none" stroke="#4d148c" stroke-linecap="round" stroke-linejoin="round" stroke-width="2"/><line x1="33" y1="44.5" x2="79" y2="44.5" fill="none" stroke="#4d148c" stroke-linecap="round" stroke-linejoin="round" stroke-width="2"/><line x1="33" y1="49.5" x2="79" y2="49.5" fill="none" stroke="#4d148c" stroke-linecap="round" stroke-linejoin="round" stroke-width="2"/><line x1="33" y1="54.5" x2="79" y2="54.5" fill="none" stroke="#4d148c" stroke-linecap="round" stroke-linejoin="round" stroke-width="2"/><line x1="33" y1="59.5" x2="56" y2="59.5" fill="none" stroke="#4d148c" stroke-linecap="round" stroke-linejoin="round" stroke-width="2"/><line x1="32.94" y1="87.33" x2="79.06" y2="87.33" fill="none" stroke="#4d148c" stroke-linecap="round" stroke-linejoin="round" stroke-width="2"/><rect x="28.5" y="7" width="55" height="86.26" fill="none" stroke="#4d148c" stroke-linecap="round" stroke-linejoin="round" stroke-width="2"/>
    </g>

    <g class="icon icon--small">
<rect x="22.29" y="1" width="67.42" height="110" rx="1.13" ry="1.13" transform="translate(112 112) rotate(180)" fill="none" stroke="#4d148c" stroke-linecap="round" stroke-linejoin="round" stroke-width="2"/><rect x="28.5" y="7" width="55" height="86.26" fill="none" stroke="#4d148c" stroke-linecap="round" stroke-linejoin="round" stroke-width="2"/><circle cx="55.48" cy="101.61" r="2.61" fill="#4d148c"/><circle cx="55.48" cy="101.61" r="2.61" fill="#4d148c"/>
    </g>
</svg>
