<svg id="Layer_1" data-name="Layer 1" xmlns="http://www.w3.org/2000/svg" viewBox="0 0 112 112"><title>working</title>

<defs>
    <style>
        /* Hide all of the icons first. */
        .icon {
            display: none;
        }

        .icon--small {
            display: block;
        }


        /* Display the desired icon and hide the others according to the viewport's size. */
        @media screen and (min-width: 100px) {

            .icon--large {
                display: block;
            }

            .icon--small {
                display: none;
            }
        }

        @media screen and (max-width: 69px){
            .icon--small * {
                stroke-width: 3;
            }
        }
    </style>
</defs>


<g class="icon icon--large">
    <line x1="96.67" y1="55.21" x2="66.72" y2="55.21" fill="none" stroke="#4d148c" stroke-linecap="round" stroke-linejoin="round" stroke-width="2"/><line x1="96.67" y1="69.13" x2="28.44" y2="69.13" fill="none" stroke="#4d148c" stroke-linecap="round" stroke-linejoin="round" stroke-width="2"/><line x1="96.67" y1="83.35" x2="28.44" y2="83.35" fill="none" stroke="#4d148c" stroke-linecap="round" stroke-linejoin="round" stroke-width="2"/><line x1="55.59" y1="55.21" x2="28.44" y2="55.21" fill="none" stroke="#4d148c" stroke-linecap="round" stroke-linejoin="round" stroke-width="2"/><line x1="96.67" y1="55.21" x2="66.72" y2="55.21" fill="none" stroke="#4d148c" stroke-linecap="round" stroke-linejoin="round" stroke-width="2"/><line x1="96.67" y1="69.13" x2="28.44" y2="69.13" fill="none" stroke="#4d148c" stroke-linecap="round" stroke-linejoin="round" stroke-width="2"/><line x1="96.67" y1="83.35" x2="28.44" y2="83.35" fill="none" stroke="#4d148c" stroke-linecap="round" stroke-linejoin="round" stroke-width="2"/><line x1="55.59" y1="55.21" x2="28.44" y2="55.21" fill="none" stroke="#4d148c" stroke-linecap="round" stroke-linejoin="round" stroke-width="2"/><path d="M9.45,96.78c6.4.07,6.4-6.4,6.4-6.4V17.09a1.88,1.88,0,0,1,1.88-1.88H110.9c.3,0-.21.12,0,.33v24c.21.21,0,.49,0,.79l.1,42s0,15-11.48,14.51H9.45c-8,0-8.45-7.12-8.45-7.12V30.71H15.85" fill="none" stroke="#4d148c" stroke-linecap="round" stroke-linejoin="round" stroke-width="2"/><path d="M39,43.57,32.17,29.2l0,0V43.57H28.65V26.28h5.51l6.59,13.61,0,0V26.28h3.47v17.3Z" fill="#4d148c"/><path d="M47,26.28H58.63v2.88H50.75v4h7.38v2.88H50.75V40.7H58.9v2.87H47Z" fill="#4d148c"/><path d="M70.37,26.28h4.19l3,13h0l2.78-13H84l-4.41,17.3H75.42L72.31,30.4h0L68.91,43.57H64.69l-4.22-17.3h3.83l2.66,13h0Z" fill="#4d148c"/><path d="M95,31.21a2.54,2.54,0,0,0-2.88-2.61c-1.36,0-2.76.72-2.76,2.23,0,1.87,1.68,2.09,3.16,2.44,2.63.67,6.52,1.41,6.52,4.89,0,4.29-3.74,5.77-7.45,5.77-3.95,0-6.75-1.53-6.63-5.89h3.78a2.73,2.73,0,0,0,2.9,3.21c1.48,0,3.45-.46,3.45-2.3,0-2-2.47-2.18-3.95-2.56-2.42-.6-5.73-1.7-5.73-4.77,0-3.95,3.64-5.7,7.19-5.7,3.35,0,6,1.82,6,5.29Z" fill="#4d148c"/>
</g>
<g class="icon icon--small">
    <line x1="96.67" y1="55.21" x2="66.72" y2="55.21" fill="none" stroke="#4d148c" stroke-linecap="round" stroke-linejoin="round" stroke-width="2"/><line x1="96.67" y1="69.13" x2="28.44" y2="69.13" fill="none" stroke="#4d148c" stroke-linecap="round" stroke-linejoin="round" stroke-width="2"/><line x1="96.67" y1="83.35" x2="28.44" y2="83.35" fill="none" stroke="#4d148c" stroke-linecap="round" stroke-linejoin="round" stroke-width="2"/><line x1="55.59" y1="55.21" x2="28.44" y2="55.21" fill="none" stroke="#4d148c" stroke-linecap="round" stroke-linejoin="round" stroke-width="2"/><line x1="96.67" y1="55.21" x2="66.72" y2="55.21" fill="none" stroke="#4d148c" stroke-linecap="round" stroke-linejoin="round" stroke-width="2"/><line x1="96.67" y1="69.13" x2="28.44" y2="69.13" fill="none" stroke="#4d148c" stroke-linecap="round" stroke-linejoin="round" stroke-width="2"/><line x1="96.67" y1="83.35" x2="28.44" y2="83.35" fill="none" stroke="#4d148c" stroke-linecap="round" stroke-linejoin="round" stroke-width="2"/><line x1="55.59" y1="55.21" x2="28.44" y2="55.21" fill="none" stroke="#4d148c" stroke-linecap="round" stroke-linejoin="round" stroke-width="2"/><path d="M9.45,96.78c6.4.07,6.4-6.4,6.4-6.4V17.09a1.88,1.88,0,0,1,1.88-1.88H110.9c.3,0-.21.12,0,.33v24c.21.21,0,.49,0,.79l.1,42s0,15-11.48,14.51H9.45c-8,0-8.45-7.12-8.45-7.12V30.71H15.85" fill="none" stroke="#4d148c" stroke-linecap="round" stroke-linejoin="round" stroke-width="2"/><path d="M39,43.57,32.17,29.2l0,0V43.57H28.65V26.28h5.51l6.59,13.61,0,0V26.28h3.47v17.3Z" fill="#4d148c"/><path d="M47,26.28H58.63v2.88H50.75v4h7.38v2.88H50.75V40.7H58.9v2.87H47Z" fill="#4d148c"/><path d="M70.37,26.28h4.19l3,13h0l2.78-13H84l-4.41,17.3H75.42L72.31,30.4h0L68.91,43.57H64.69l-4.22-17.3h3.83l2.66,13h0Z" fill="#4d148c"/><path d="M95,31.21a2.54,2.54,0,0,0-2.88-2.61c-1.36,0-2.76.72-2.76,2.23,0,1.87,1.68,2.09,3.16,2.44,2.63.67,6.52,1.41,6.52,4.89,0,4.29-3.74,5.77-7.45,5.77-3.95,0-6.75-1.53-6.63-5.89h3.78a2.73,2.73,0,0,0,2.9,3.21c1.48,0,3.45-.46,3.45-2.3,0-2-2.47-2.18-3.95-2.56-2.42-.6-5.73-1.7-5.73-4.77,0-3.95,3.64-5.7,7.19-5.7,3.35,0,6,1.82,6,5.29Z" fill="#4d148c"/>
</g>
</svg>
