<svg xmlns="http://www.w3.org/2000/svg" viewBox="-2 -2 116 116">
    <defs>
        <style>
            /* Hide all of the icons first. */
            .icon {
                display: none;
            }

            .icon--small {
                display: block;
            }


            /* Display the desired icon and hide the others according to the viewport's size. */
            @media screen and (min-width: 100px) {

                .icon--large {
                    display: block;
                }

                .icon--small {
                    display: none;
                }
            }

            @media screen and (max-width: 69px){
                .icon--small *{
                    stroke-width: 3;
                }
            }
        </style>
    </defs>


    <g class="icon icon--large">
<path d="M95.69,1.77A3.73,3.73,0,0,1,97,5.68L86.72,44.35a3.73,3.73,0,0,1-6.81.94l-5.52-9.35L60.62,53.81a3.73,3.73,0,0,1-5.23.68l.08.06a3.73,3.73,0,0,1-.7-5.23l13.7-17.93L58,28.48a3.73,3.73,0,0,1-.86-6.82L91.83,1.71A3.73,3.73,0,0,1,95.94,2" fill="none" stroke="#4d148c" stroke-linecap="round" stroke-linejoin="round" stroke-width="2"/><path d="M69.87,48.25V83.5A27.5,27.5,0,0,1,42.37,111h0a27.5,27.5,0,0,1-27.5-27.5v-55A27.5,27.5,0,0,1,42.37,1h0A27.47,27.47,0,0,1,65,12.94" fill="none" stroke="#4d148c" stroke-linecap="round" stroke-linejoin="round" stroke-width="2"/><path d="M45.81,42.25a3.44,3.44,0,0,1-3.44,3.44h0a3.44,3.44,0,0,1-3.44-3.44V28.5a3.44,3.44,0,0,1,3.44-3.44h0a3.44,3.44,0,0,1,3.44,3.44Z" fill="none" stroke="#4d148c" stroke-linecap="round" stroke-linejoin="round" stroke-width="2"/>
    </g>

    <g class="icon icon--small">
<path d="M83.5,83.5A27.5,27.5,0,0,1,56,111h0A27.5,27.5,0,0,1,28.5,83.5v-55A27.5,27.5,0,0,1,56,1h0A27.5,27.5,0,0,1,83.5,28.5Z" fill="none" stroke="#4d148c" stroke-miterlimit="10" stroke-width="2"/><path d="M59.44,42.25A3.44,3.44,0,0,1,56,45.69h0a3.44,3.44,0,0,1-3.44-3.44V28.5A3.44,3.44,0,0,1,56,25.06h0a3.44,3.44,0,0,1,3.44,3.44Z" fill="none" stroke="#4d148c" stroke-miterlimit="10" stroke-width="2"/>
    </g>
</svg>
