<svg xmlns="http://www.w3.org/2000/svg" viewBox="-2 -2 116 116">
    <defs>
        <style>
            /* Hide all of the icons first. */
            .icon {
                display: none;
            }

            .icon--small {
                display: block;
            }


            /* Display the desired icon and hide the others according to the viewport's size. */
            @media screen and (min-width: 100px) {

                .icon--large {
                    display: block;
                }

                .icon--small {
                    display: none;
                }
            }

            @media screen and (max-width: 69px){
                .icon--small *{
                    stroke-width: 3;
                }
            }
        </style>
    </defs>


    <g class="icon icon--large">
<polyline points="92.84 63.36 92.84 81.11 92.84 81.24 56.11 102.84 19.38 81.24 19.38 81.23 19.38 63.25" fill="none" stroke="#4d148c" stroke-linecap="round" stroke-linejoin="round" stroke-width="2"/><polyline points="47.64 63.36 56.11 58.38 64.58 63.36" fill="none" stroke="#4d148c" stroke-linecap="round" stroke-linejoin="round" stroke-width="2"/><polygon points="37.73 74.04 1 52.44 19.38 47.66 56.11 69.28 37.73 74.04" fill="none" stroke="#4d148c" stroke-linecap="round" stroke-linejoin="round" stroke-width="2"/><polygon points="92.84 47.66 56.11 26.06 72.07 9.18 108.8 30.8 92.84 47.66" fill="none" stroke="#4d148c" stroke-linecap="round" stroke-linejoin="round" stroke-width="2"/><polygon points="74.27 74.07 56.11 69.29 92.84 47.67 111 52.47 74.27 74.07" fill="none" stroke="#4d148c" stroke-linecap="round" stroke-linejoin="round" stroke-width="2"/><polygon points="19.38 47.66 3.64 30.78 40.37 9.16 56.11 26.06 19.38 47.66" fill="none" stroke="#4d148c" stroke-linecap="round" stroke-linejoin="round" stroke-width="2"/><line x1="56.11" y1="69.28" x2="56.11" y2="102.84" fill="none" stroke="#4d148c" stroke-linecap="round" stroke-linejoin="round" stroke-width="2"/><line x1="56.11" y1="26.06" x2="56.11" y2="58.37" fill="none" stroke="#4d148c" stroke-linecap="round" stroke-linejoin="round" stroke-width="2"/><path d="M50.62,93.06A1.27,1.27,0,0,0,50,92c-.38-.21-.65-.08-.65.3a1.27,1.27,0,0,0,.65,1c.38.21.65.08.65-.3m-.83-.42v.44L49.65,93V92l.35.2a.49.49,0,0,1,.3.43.11.11,0,0,1-.17.11h0a.37.37,0,0,1,.13.29,1.26,1.26,0,0,0,.06.3l-.17-.09c0-.11,0-.24-.06-.36a.29.29,0,0,0-.16-.2Zm.18,0c.14.08.18,0,.18,0s0-.16-.18-.23l-.18-.1v.27Zm-.81-.36c0-.47.38-.58.81-.35a1.59,1.59,0,0,1,.81,1.24c0,.47-.38.58-.81.35a1.59,1.59,0,0,1-.81-1.24" fill="#4d148c"/><path d="M46.4,89.19l1.94-1.09-2.28-1.26-.79.46-.82-1.35-4.33-2.4V83l2,1.13V82.37l-5.51-3.06V82h0a3.29,3.29,0,0,0-1.29-1.25c-1-.57-1.81-.31-2.09.47A4.73,4.73,0,0,0,31,78.32c-1-.54-1.73-.53-2.13,0V77.4l-2-1.11v-.95L29,76.55V75.07l-4-2.2v6.67l1.79,1v-2.8l1.78,1a2.11,2.11,0,0,0-.08.61A4.7,4.7,0,0,0,31,83c1.15.64,1.91.52,2.31-.23L31.73,82c-.21.18-.36.18-.78-.05a1.85,1.85,0,0,1-.89-1.4l3.12,1.73a4.65,4.65,0,0,0,2.19,3.27,1.08,1.08,0,0,0,1.27,0h0V86l7.74,4.29.81-.46L46,91.17l2.35,1.3ZM30.11,79.56c.1-.37.43-.46.84-.23a1.69,1.69,0,0,1,.85,1.17Zm5.59,4.87a2,2,0,0,1-.94-1.62c0-.6.31-1,.94-.65a1.9,1.9,0,0,1,.91,1.68c0,.57-.27.94-.91.59m6.12,4.08-3.44-1.91v-6l3.46,1.92V83.6l-2-1.13v1.23l2,1.12v1l-2-1.13v1.62l2,1.13Zm-1.68-2.37v-.88l2,1.13V84.81L44,87.89l-1.85,1V87.28Zm5.05,3.17-1,.54-1.39-.77,1.66-.93-1.66-2.77,1.45.8,1,1.6.93-.54,1.4.78L46,89l1.68,2.79-1.48-.82Z" fill="#4d148c"/>
    </g>

    <g class="icon icon--small">
<polyline points="92.84 63.36 92.84 81.11 92.84 81.24 56.11 102.84 19.38 81.24 19.38 81.23 19.38 63.25" fill="none" stroke="#4d148c" stroke-linecap="round" stroke-linejoin="round" stroke-width="2"/><polygon points="37.73 74.04 1 52.44 19.38 47.66 56.11 69.28 37.73 74.04" fill="none" stroke="#4d148c" stroke-linecap="round" stroke-linejoin="round" stroke-width="2"/><polygon points="92.84 47.66 56.11 26.06 72.07 9.18 108.8 30.8 92.84 47.66" fill="none" stroke="#4d148c" stroke-linecap="round" stroke-linejoin="round" stroke-width="2"/><polygon points="74.27 74.07 56.11 69.29 92.84 47.67 111 52.47 74.27 74.07" fill="none" stroke="#4d148c" stroke-linecap="round" stroke-linejoin="round" stroke-width="2"/><polygon points="19.38 47.66 3.64 30.78 40.37 9.16 56.11 26.06 19.38 47.66" fill="none" stroke="#4d148c" stroke-linecap="round" stroke-linejoin="round" stroke-width="2"/><line x1="56.11" y1="69.28" x2="56.11" y2="102.84" fill="none" stroke="#4d148c" stroke-linecap="round" stroke-linejoin="round" stroke-width="2"/><line x1="56.11" y1="26.06" x2="56.11" y2="69.29" fill="none" stroke="#4d148c" stroke-linecap="round" stroke-linejoin="round" stroke-width="2"/>    </g>
</svg>
