<svg id="Layer_1" data-name="Layer 1" xmlns="http://www.w3.org/2000/svg" viewBox="0 0 112 112"><title>working 2</title>
<defs>
    <style>
        /* Hide all of the icons first. */
        .icon {
            display: none;
        }

        .icon--small {
            display: block;
        }


        /* Display the desired icon and hide the others according to the viewport's size. */
        @media screen and (min-width: 100px) {

            .icon--large {
                display: block;
            }

            .icon--small {
                display: none;
            }
        }

        @media screen and (max-width: 69px){
            .icon--small * {
                stroke-width: 3;
            }
        }
    </style>
</defs>


<g class="icon icon--large">
<circle cx="56" cy="56" r="55" fill="#fff" stroke="#4d148c" stroke-linecap="round" stroke-linejoin="round" stroke-width="2"/><path d="M81.55,56.48,41.76,77.16a.75.75,0,0,1-1.09-.67V35.13a.75.75,0,0,1,1.09-.67l39.8,20.68A.76.76,0,0,1,81.55,56.48Z" fill="#fff" stroke="#4d148c" stroke-linecap="round" stroke-linejoin="round" stroke-width="2"/><circle cx="56" cy="56" r="55" fill="#fff" stroke="#4d148c" stroke-linecap="round" stroke-linejoin="round" stroke-width="2"/><path d="M81.55,56.48,41.76,77.16a.75.75,0,0,1-1.09-.67V35.13a.75.75,0,0,1,1.09-.67l39.8,20.68A.76.76,0,0,1,81.55,56.48Z" fill="#fff" stroke="#4d148c" stroke-linecap="round" stroke-linejoin="round" stroke-width="2"/>
</g>
<g class="icon icon--small">
<circle cx="56" cy="56" r="55" fill="#fff" stroke="#4d148c" stroke-linecap="round" stroke-linejoin="round" stroke-width="2"/><path d="M81.55,56.48,41.76,77.16a.75.75,0,0,1-1.09-.67V35.13a.75.75,0,0,1,1.09-.67l39.8,20.68A.76.76,0,0,1,81.55,56.48Z" fill="#fff" stroke="#4d148c" stroke-linecap="round" stroke-linejoin="round" stroke-width="2"/><circle cx="56" cy="56" r="55" fill="#fff" stroke="#4d148c" stroke-linecap="round" stroke-linejoin="round" stroke-width="2"/><path d="M81.55,56.48,41.76,77.16a.75.75,0,0,1-1.09-.67V35.13a.75.75,0,0,1,1.09-.67l39.8,20.68A.76.76,0,0,1,81.55,56.48Z" fill="#fff" stroke="#4d148c" stroke-linecap="round" stroke-linejoin="round" stroke-width="2"/>
</g>
</svg>
