<svg xmlns="http://www.w3.org/2000/svg" viewBox="0 0 112 112"><title>rates</title>
    <defs>
        <style>
            @media screen and (max-width: 69px){
                rect, path {
                    stroke-width: 3;
                }
            }
        </style>
    </defs>
<rect x="18" y="1" width="76" height="110" rx="0.86" ry="0.86" fill="none" stroke="#4d148c" stroke-linecap="round" stroke-linejoin="round" stroke-width="2"/><rect x="28.99" y="12" width="54.01" height="30" fill="none" stroke="#4d148c" stroke-linecap="round" stroke-linejoin="round" stroke-width="2"/><rect x="29" y="54" width="9" height="9" fill="none" stroke="#4d148c" stroke-linecap="round" stroke-linejoin="round" stroke-width="2"/><rect x="44" y="54" width="9" height="9" fill="none" stroke="#4d148c" stroke-linecap="round" stroke-linejoin="round" stroke-width="2"/><rect x="59" y="54" width="9" height="9" fill="none" stroke="#4d148c" stroke-linecap="round" stroke-linejoin="round" stroke-width="2"/><rect x="74" y="54" width="9" height="9" fill="none" stroke="#4d148c" stroke-linecap="round" stroke-linejoin="round" stroke-width="2"/><rect x="29" y="69" width="9" height="9" fill="none" stroke="#4d148c" stroke-linecap="round" stroke-linejoin="round" stroke-width="2"/><rect x="44" y="69" width="9" height="9" fill="none" stroke="#4d148c" stroke-linecap="round" stroke-linejoin="round" stroke-width="2"/><rect x="59" y="69" width="9" height="9" fill="none" stroke="#4d148c" stroke-linecap="round" stroke-linejoin="round" stroke-width="2"/><rect x="74" y="69" width="9" height="24" fill="none" stroke="#4d148c" stroke-linecap="round" stroke-linejoin="round" stroke-width="2"/><rect x="29" y="84" width="9" height="9" fill="none" stroke="#4d148c" stroke-linecap="round" stroke-linejoin="round" stroke-width="2"/><rect x="44" y="84" width="9" height="9" fill="none" stroke="#4d148c" stroke-linecap="round" stroke-linejoin="round" stroke-width="2"/><rect x="59" y="84" width="9" height="9" fill="none" stroke="#4d148c" stroke-linecap="round" stroke-linejoin="round" stroke-width="2"/><path d="M43.38,34.55h-2.6V22l-3.83,1.31V21.1L43,18.85h.33Z" fill="#4d148c"/><path d="M61.09,34.55H50.57V32.75l5.21-5.68A12.93,12.93,0,0,0,57.39,25a3.4,3.4,0,0,0,.48-1.69,2.57,2.57,0,0,0-.63-1.8,2.18,2.18,0,0,0-1.69-.69,2.51,2.51,0,0,0-2,.77,3,3,0,0,0-.7,2.12H50.27a5.12,5.12,0,0,1,.65-2.57,4.48,4.48,0,0,1,1.86-1.78,5.91,5.91,0,0,1,2.79-.63,5.29,5.29,0,0,1,3.59,1.14A4,4,0,0,1,60.48,23a5.36,5.36,0,0,1-.66,2.45,13.9,13.9,0,0,1-2.16,2.92l-3.82,4.09h7.26Z" fill="#4d148c"/><path d="M70.05,25.53h1.59a2.84,2.84,0,0,0,1.91-.62,2.22,2.22,0,0,0,.7-1.77,2.43,2.43,0,0,0-.58-1.73,2.36,2.36,0,0,0-1.79-.62,2.49,2.49,0,0,0-1.73.61A2,2,0,0,0,69.47,23H66.86a4,4,0,0,1,.64-2.19,4.29,4.29,0,0,1,1.78-1.54,5.81,5.81,0,0,1,2.56-.55,5.38,5.38,0,0,1,3.68,1.18,4.13,4.13,0,0,1,1.34,3.27,3.32,3.32,0,0,1-.67,2,4.2,4.2,0,0,1-1.73,1.4,3.85,3.85,0,0,1,2,1.39,3.8,3.8,0,0,1,.67,2.26,4.2,4.2,0,0,1-1.44,3.35,6.34,6.34,0,0,1-7.49,0,4,4,0,0,1-1.44-3.2h2.61A2.18,2.18,0,0,0,70,32a2.63,2.63,0,0,0,1.86.64A2.71,2.71,0,0,0,73.79,32a2.42,2.42,0,0,0,.7-1.87,2.44,2.44,0,0,0-.73-1.9,3.12,3.12,0,0,0-2.17-.67H70.05Z" fill="#4d148c"/>
</svg>
