<svg xmlns="http://www.w3.org/2000/svg" viewBox="-2 -2 116 116"><title>RateShip</title>
    <defs>
        <style>
            /* Hide all of the icons first. */
            .icon {
                display: none;
            }

            .icon--small {
                display: block;
            }


            /* Display the desired icon and hide the others according to the viewport's size. */
            @media screen and (min-width: 100px) {

                .icon--large {
                    display: block;
                }

                .icon--small {
                    display: none;
                }
            }

            @media screen and (max-width: 69px){
                .icon--small * {
                    stroke-width: 3;
                }
            }
        </style>
    </defs>


    <g class="icon icon--large">
<line x1="59.4" y1="4.34" x2="103.99" y2="25.38" fill="none" stroke="#4d148c" stroke-linecap="round" stroke-linejoin="round" stroke-width="2"/><polyline points="21.43 38.63 21.43 22.14 66.2 1.06 110.88 22.14 110.88 64.29 66.2 85.37 51.93 78.36" fill="none" stroke="#4d148c" stroke-linecap="round" stroke-linejoin="round" stroke-width="2"/><line x1="66.2" y1="43.21" x2="21.43" y2="22.14" fill="none" stroke="#4d148c" stroke-linecap="round" stroke-linejoin="round" stroke-width="2"/><line x1="66.2" y1="43.21" x2="66.2" y2="85.37" fill="none" stroke="#4d148c" stroke-linecap="round" stroke-linejoin="round" stroke-width="2"/><line x1="110.88" y1="22.14" x2="66.2" y2="43.21" fill="none" stroke="#4d148c" stroke-linecap="round" stroke-linejoin="round" stroke-width="2"/><line x1="28.97" y1="18.59" x2="73.68" y2="39.68" fill="none" stroke="#4d148c" stroke-linecap="round" stroke-linejoin="round" stroke-width="2"/><line x1="47.28" y1="27.07" x2="77.12" y2="13.02" fill="none" stroke="#4d148c" stroke-linecap="round" stroke-linejoin="round" stroke-width="2"/><line x1="54.39" y1="30.58" x2="84.73" y2="16.29" fill="none" stroke="#4d148c" stroke-linecap="round" stroke-linejoin="round" stroke-width="2"/><rect x="1" y="43.21" width="46" height="67.79" rx="0.86" ry="0.86" fill="none" stroke="#4d148c" stroke-linecap="round" stroke-linejoin="round" stroke-width="2"/><rect x="8" y="50" width="32" height="18" fill="none" stroke="#4d148c" stroke-linecap="round" stroke-linejoin="round" stroke-width="2"/><rect x="8" y="76" width="5" height="5" fill="none" stroke="#4d148c" stroke-linecap="round" stroke-linejoin="round" stroke-width="2"/><rect x="17" y="76" width="5" height="5" fill="none" stroke="#4d148c" stroke-linecap="round" stroke-linejoin="round" stroke-width="2"/><rect x="26" y="76" width="5" height="5" fill="none" stroke="#4d148c" stroke-linecap="round" stroke-linejoin="round" stroke-width="2"/><rect x="35" y="76" width="5" height="5" fill="none" stroke="#4d148c" stroke-linecap="round" stroke-linejoin="round" stroke-width="2"/><rect x="8" y="86" width="5" height="5" fill="none" stroke="#4d148c" stroke-linecap="round" stroke-linejoin="round" stroke-width="2"/><rect x="17" y="86" width="5" height="5" fill="none" stroke="#4d148c" stroke-linecap="round" stroke-linejoin="round" stroke-width="2"/><rect x="26" y="86" width="5" height="5" fill="none" stroke="#4d148c" stroke-linecap="round" stroke-linejoin="round" stroke-width="2"/><rect x="35" y="86" width="5" height="15" fill="none" stroke="#4d148c" stroke-linecap="round" stroke-linejoin="round" stroke-width="2"/><rect x="8" y="96" width="5" height="5" fill="none" stroke="#4d148c" stroke-linecap="round" stroke-linejoin="round" stroke-width="2"/><rect x="17" y="96" width="5" height="5" fill="none" stroke="#4d148c" stroke-linecap="round" stroke-linejoin="round" stroke-width="2"/><rect x="26" y="96" width="5" height="5" fill="none" stroke="#4d148c" stroke-linecap="round" stroke-linejoin="round" stroke-width="2"/><g style="isolation:isolate"><g style="isolation:isolate"><path d="M15.68,64.19H14v-8L11.59,57v-1.4l3.88-1.43h.21Z" fill="#4e148c"/></g><g style="isolation:isolate"><path d="M26.72,64.19H20V63l3.32-3.62a8.26,8.26,0,0,0,1-1.34,2.17,2.17,0,0,0,.3-1.08,1.64,1.64,0,0,0-.4-1.15,1.39,1.39,0,0,0-1.08-.44,1.6,1.6,0,0,0-1.25.49,1.94,1.94,0,0,0-.44,1.35H19.83a3.25,3.25,0,0,1,.41-1.64,2.84,2.84,0,0,1,1.18-1.13,3.77,3.77,0,0,1,1.77-.4,3.36,3.36,0,0,1,2.29.73,2.53,2.53,0,0,1,.84,2,3.41,3.41,0,0,1-.42,1.56,8.86,8.86,0,0,1-1.38,1.86l-2.43,2.6h4.62Z" fill="#4e148c"/><path d="M31.58,58.46h1a1.81,1.81,0,0,0,1.21-.4,1.42,1.42,0,0,0,.45-1.13,1.54,1.54,0,0,0-.37-1.1,1.5,1.5,0,0,0-1.14-.39,1.59,1.59,0,0,0-1.1.39,1.29,1.29,0,0,0-.43,1H29.55A2.51,2.51,0,0,1,30,55.43a2.74,2.74,0,0,1,1.13-1,3.7,3.7,0,0,1,1.63-.35,3.43,3.43,0,0,1,2.34.75,2.63,2.63,0,0,1,.85,2.08,2.12,2.12,0,0,1-.43,1.26,2.68,2.68,0,0,1-1.1.89,2.31,2.31,0,0,1,1.67,2.32,2.67,2.67,0,0,1-.92,2.13,4,4,0,0,1-4.77,0,2.52,2.52,0,0,1-.92-2h1.66a1.39,1.39,0,0,0,.44,1.07,1.67,1.67,0,0,0,1.19.41A1.72,1.72,0,0,0,34,62.59a1.81,1.81,0,0,0,0-2.4,2,2,0,0,0-1.38-.42h-1Z" fill="#4e148c"/></g></g>
    </g>

    <g class="icon icon--small">
<polyline points="21.66 38.56 21.66 22.12 66.28 1.12 110.81 22.12 110.81 64.14 66.28 85.15 52.06 78.16" fill="none" stroke="#4d148c" stroke-linecap="round" stroke-linejoin="round" stroke-width="2"/><line x1="66.28" y1="43.13" x2="21.66" y2="22.12" fill="none" stroke="#4d148c" stroke-linecap="round" stroke-linejoin="round" stroke-width="2"/><line x1="66.28" y1="43.13" x2="66.28" y2="85.15" fill="none" stroke="#4d148c" stroke-linecap="round" stroke-linejoin="round" stroke-width="2"/><line x1="110.81" y1="22.12" x2="66.28" y2="43.13" fill="none" stroke="#4d148c" stroke-linecap="round" stroke-linejoin="round" stroke-width="2"/><line x1="87.19" y1="11.02" x2="42.71" y2="32.03" fill="none" stroke="#4d148c" stroke-linecap="round" stroke-linejoin="round" stroke-width="2"/><path d="M1.86,43H47.14a.86.86,0,0,1,.86.86v66.28a.86.86,0,0,1-.86.86H1.86a.86.86,0,0,1-.86-.86V43.86A.86.86,0,0,1,1.86,43Z" fill="none" stroke="#4d148c" stroke-linecap="round" stroke-linejoin="round" stroke-width="2"/><rect x="7.01" y="49.02" width="34.98" height="18" fill="none" stroke="#4d148c" stroke-linecap="round" stroke-linejoin="round" stroke-width="2"/><line x1="7" y1="77" x2="12" y2="77" fill="none" stroke="#4d148c" stroke-linecap="round" stroke-linejoin="round" stroke-width="2"/><line x1="17" y1="77" x2="22" y2="77" fill="none" stroke="#4d148c" stroke-linecap="round" stroke-linejoin="round" stroke-width="2"/><line x1="27" y1="77" x2="32" y2="77" fill="none" stroke="#4d148c" stroke-linecap="round" stroke-linejoin="round" stroke-width="2"/><line x1="37" y1="77" x2="42" y2="77" fill="none" stroke="#4d148c" stroke-linecap="round" stroke-linejoin="round" stroke-width="2"/><line x1="7" y1="87" x2="12" y2="87" fill="none" stroke="#4d148c" stroke-linecap="round" stroke-linejoin="round" stroke-width="2"/><line x1="17" y1="87" x2="22" y2="87" fill="none" stroke="#4d148c" stroke-linecap="round" stroke-linejoin="round" stroke-width="2"/><line x1="27" y1="87" x2="32" y2="87" fill="none" stroke="#4d148c" stroke-linecap="round" stroke-linejoin="round" stroke-width="2"/><line x1="7" y1="97" x2="12" y2="97" fill="none" stroke="#4d148c" stroke-linecap="round" stroke-linejoin="round" stroke-width="2"/><line x1="17" y1="97" x2="22" y2="97" fill="none" stroke="#4d148c" stroke-linecap="round" stroke-linejoin="round" stroke-width="2"/><line x1="27" y1="97" x2="32" y2="97" fill="none" stroke="#4d148c" stroke-linecap="round" stroke-linejoin="round" stroke-width="2"/><line x1="40" y1="87" x2="40" y2="97" fill="none" stroke="#4d148c" stroke-linecap="round" stroke-linejoin="round" stroke-width="2"/>
    </g>
</svg>
