<svg id="Layer_1" data-name="Layer 1" xmlns="http://www.w3.org/2000/svg" viewBox="0 0 112 112"><title>working 2</title>

<defs>
    <style>
        /* Hide all of the icons first. */
        .icon {
            display: none;
        }

        .icon--small {
            display: block;
        }


        /* Display the desired icon and hide the others according to the viewport's size. */
        @media screen and (min-width: 100px) {

            .icon--large {
                display: block;
            }

            .icon--small {
                display: none;
            }
        }

        @media screen and (max-width: 69px){
            .icon--small * {
                stroke-width: 3;
            }
        }
    </style>
</defs>


<g class="icon icon--large">
    <polyline points="93.21 20.24 111 29.11 111 82.89 56 109.78 1 82.89 1 29.11 18.75 20.14" fill="none" stroke="#4d148c" stroke-linecap="round" stroke-linejoin="round" stroke-width="2"/><polyline points="39.92 9.93 56.13 2.22 71.98 9.77" fill="none" stroke="#4d148c" stroke-linecap="round" stroke-linejoin="round" stroke-width="2"/><line x1="56" y1="56" x2="1" y2="29.11" fill="none" stroke="#4d148c" stroke-linecap="round" stroke-linejoin="round" stroke-width="2"/><polyline points="111 29.11 56 56 56 109.78" fill="none" stroke="#4d148c" stroke-linecap="round" stroke-linejoin="round" stroke-width="2"/><line x1="26.67" y1="42.35" x2="26.67" y2="95.44" fill="none" stroke="#4d148c" stroke-linecap="round" stroke-linejoin="round" stroke-width="2"/><line x1="85.33" y1="41.66" x2="85.33" y2="95.44" fill="none" stroke="#4d148c" stroke-linecap="round" stroke-linejoin="round" stroke-width="2"/><path d="M26.92,28.15C37,32.08,56,27.45,56,27.45S45.15,11.15,35.1,7.22c-7.41-2.89-13-.21-15.48,6S20.26,25.55,26.92,28.15Z" fill="none" stroke="#4d148c" stroke-linecap="round" stroke-linejoin="round" stroke-width="2"/><path d="M85.08,28.15C75,32.08,56,27.45,56,27.45S66.85,11.15,76.9,7.22c7.41-2.89,13-.21,15.48,6S91.74,25.55,85.08,28.15Z" fill="none" stroke="#4d148c" stroke-linecap="round" stroke-linejoin="round" stroke-width="2"/><polyline points="37.63 56.91 56 27.54 74.37 56.91" fill="none" stroke="#4d148c" stroke-linecap="round" stroke-linejoin="round" stroke-width="2"/>
</g>

<g class="icon icon--small">
    <polyline points="93.21 20.24 111 29.11 111 82.89 56 109.78 1 82.89 1 29.11 18.75 20.14" fill="none" stroke="#4d148c" stroke-linecap="round" stroke-linejoin="round" stroke-width="2"/><polyline points="39.92 9.93 56.13 2.22 71.98 9.77" fill="none" stroke="#4d148c" stroke-linecap="round" stroke-linejoin="round" stroke-width="2"/><line x1="56" y1="56" x2="1" y2="29.11" fill="none" stroke="#4d148c" stroke-linecap="round" stroke-linejoin="round" stroke-width="2"/><polyline points="111 29.11 56 56 56 109.78" fill="none" stroke="#4d148c" stroke-linecap="round" stroke-linejoin="round" stroke-width="2"/><line x1="26.67" y1="42.35" x2="26.67" y2="95.44" fill="none" stroke="#4d148c" stroke-linecap="round" stroke-linejoin="round" stroke-width="2"/><line x1="85.33" y1="41.66" x2="85.33" y2="95.44" fill="none" stroke="#4d148c" stroke-linecap="round" stroke-linejoin="round" stroke-width="2"/><path d="M26.92,28.15C37,32.08,56,27.45,56,27.45S45.15,11.15,35.1,7.22c-7.41-2.89-13-.21-15.48,6S20.26,25.55,26.92,28.15Z" fill="none" stroke="#4d148c" stroke-linecap="round" stroke-linejoin="round" stroke-width="2"/><path d="M85.08,28.15C75,32.08,56,27.45,56,27.45S66.85,11.15,76.9,7.22c7.41-2.89,13-.21,15.48,6S91.74,25.55,85.08,28.15Z" fill="none" stroke="#4d148c" stroke-linecap="round" stroke-linejoin="round" stroke-width="2"/><polyline points="37.63 56.91 56 27.54 74.37 56.91" fill="none" stroke="#4d148c" stroke-linecap="round" stroke-linejoin="round" stroke-width="2"/>
</g>
</svg>
