<svg xmlns="http://www.w3.org/2000/svg" viewBox="-2 -2 116 116">
    <defs>
        <style>
            /* Hide all of the icons first. */
            .icon {
                display: none;
            }

            .icon--small {
                display: block;
            }


            /* Display the desired icon and hide the others according to the viewport's size. */
            @media screen and (min-width: 100px) {

                .icon--large {
                    display: block;
                }

                .icon--small {
                    display: none;
                }
            }

            @media screen and (max-width: 69px){
                .icon--small * {
                    stroke-width: 3;
                }
            }
        </style>
    </defs>


    <g class="icon icon--large">
        <ellipse cx="34.63" cy="34.47" rx="33.63" ry="33.89" fill="none" stroke="#4d148c" stroke-linecap="round" stroke-miterlimit="10" stroke-width="2"/><polygon points="110.59 100.73 100.4 111 69.82 80.19 80.01 69.92 110.59 100.73" fill="none" stroke="#4d148c" stroke-linecap="round" stroke-miterlimit="10" stroke-width="2"/><line x1="71.86" y1="78.14" x2="55.16" y2="61.31" fill="none" stroke="#4d148c" stroke-linecap="round" stroke-miterlimit="10" stroke-width="2"/><line x1="61.27" y1="55.15" x2="77.98" y2="71.98" fill="none" stroke="#4d148c" stroke-linecap="round" stroke-miterlimit="10" stroke-width="2"/>
    </g>

    <g class="icon icon--small">
        <path d="M63.84,12.24a36.81,36.81,0,1,1-52.06,0A36.8,36.8,0,0,1,63.84,12.24Z" fill="none" stroke="#4d148c" stroke-linecap="round" stroke-miterlimit="10" stroke-width="2" class="smallstroke"/><path d="M63.84,12.24a36.81,36.81,0,1,1-52.06,0A36.8,36.8,0,0,1,63.84,12.24Z" fill="none" stroke="#4d148c" stroke-linecap="round" stroke-miterlimit="10" stroke-width="2" class="smallstroke"/><polyline points="68.85 60.18 110.58 101.63 102.03 110.13 60.3 68.68" fill="none" stroke="#4d148c" stroke-linecap="round" stroke-miterlimit="10" stroke-width="2" class="smallstroke"/><line x1="75.21" y1="83.5" x2="83.77" y2="74.99" fill="none" stroke="#4d148c" stroke-linecap="round" stroke-miterlimit="10" stroke-width="2" class="smallstroke"/>
    </g>
</svg>
