<svg xmlns="http://www.w3.org/2000/svg" viewBox="-2 -2 116 116">
    <defs>
        <style>
            /* Hide all of the icons first. */
            .icon {
                display: none;
            }

            .icon--small {
                display: block;
            }


            /* Display the desired icon and hide the others according to the viewport's size. */
            @media screen and (min-width: 100px) {

                .icon--large {
                    display: block;
                }

                .icon--small {
                    display: none;
                }
            }

            @media screen and (max-width: 69px){
                .icon--small * {
                    stroke-width: 3;
                }
            }
        </style>
    </defs>


    <g class="icon icon--large">
<path d="M111,92.95c-.11,6.8-6.22,12.27-13.73,12.27S83.48,99.64,83.48,92.75c0,6.88-6.15,12.46-13.74,12.46S56,99.64,56,92.75c0,6.88-6.15,12.46-13.74,12.46S28.52,99.64,28.52,92.75c0,6.88-6.15,12.46-13.74,12.46S1.16,99.74,1,92.95" fill="none" stroke="#4d148c" stroke-linecap="round" stroke-linejoin="round" stroke-width="2"/><polyline points="29.12 54.85 29.12 37.73 83.52 37.73 83.52 55.41" fill="none" stroke="#4d148c" stroke-linecap="round" stroke-linejoin="round" stroke-width="2"/><rect x="34.56" y="32.29" width="43.52" height="5.44" fill="none" stroke="#4d148c" stroke-linecap="round" stroke-linejoin="round" stroke-width="2"/><rect x="48.16" y="18.69" width="16.32" height="13.6" fill="none" stroke="#4d148c" stroke-linecap="round" stroke-linejoin="round" stroke-width="2"/><path d="M75.4,103.85c2-21.26,18.86-42,18.86-42A101.76,101.76,0,0,0,56,46.5,101.76,101.76,0,0,0,17.74,61.8s16.81,20.78,18.86,42" fill="none" stroke="#4d148c" stroke-linecap="round" stroke-linejoin="round" stroke-width="2"/><path d="M56,52.07A97.68,97.68,0,0,0,20.71,65.58" fill="none" stroke="#4d148c" stroke-linecap="round" stroke-linejoin="round" stroke-width="2"/><path d="M91.41,65.66A99.1,99.1,0,0,0,56,52.07" fill="none" stroke="#4d148c" stroke-linecap="round" stroke-linejoin="round" stroke-width="2"/><path d="M57.17,6.78c0,3.79-4,3.79-4,7.58" fill="none" stroke="#4d148c" stroke-linecap="round" stroke-linejoin="round" stroke-width="2"/><path d="M62.83,6.78c0,3.79-4,3.79-4,7.58" fill="none" stroke="#4d148c" stroke-linecap="round" stroke-linejoin="round" stroke-width="2"/><line x1="48.99" y1="22.86" x2="64.31" y2="22.86" fill="none" stroke="#4d148c" stroke-linecap="round" stroke-linejoin="round" stroke-width="2"/>
    </g>

    <g class="icon icon--small">
<path d="M111,87c-.11,6.8-6.22,12.27-13.73,12.27S83.53,93.68,83.53,86.8c0,6.88-6.15,12.46-13.74,12.46S56,93.68,56,86.8c0,6.88-6.15,12.46-13.74,12.46S28.57,93.68,28.57,86.8c0,6.88-6.15,12.46-13.74,12.46S1.21,93.79,1.1,87" fill="none" stroke="#4d148c" stroke-linecap="round" stroke-linejoin="round" stroke-width="2"/><polyline points="29.17 48.9 29.17 31.77 83.56 31.77 83.56 49.45" fill="none" stroke="#4d148c" stroke-linecap="round" stroke-linejoin="round" stroke-width="2"/><rect x="34.61" y="26.33" width="43.52" height="5.44" fill="none" stroke="#4d148c" stroke-linecap="round" stroke-linejoin="round" stroke-width="2"/><rect x="48.21" y="12.73" width="16.32" height="13.6" fill="none" stroke="#4d148c" stroke-linecap="round" stroke-linejoin="round" stroke-width="2"/><path d="M75.44,97.9c2-21.26,18.86-42,18.86-42A101.76,101.76,0,0,0,56,40.55a101.76,101.76,0,0,0-38.26,15.3s16.81,20.78,18.86,42" fill="none" stroke="#4d148c" stroke-linecap="round" stroke-linejoin="round" stroke-width="2"/>
    </g>
</svg>
