<svg id="Layer_1" data-name="Layer 1" xmlns="http://www.w3.org/2000/svg" viewBox="0 0 112 112"><title>working 2</title>

<defs>
    <style>
        /* Hide all of the icons first. */
        .icon {
            display: none;
        }

        .icon--small {
            display: block;
        }


        /* Display the desired icon and hide the others according to the viewport's size. */
        @media screen and (min-width: 100px) {

            .icon--large {
                display: block;
            }

            .icon--small {
                display: none;
            }
        }

        @media screen and (max-width: 69px){
            .icon--small * {
                stroke-width: 3;
            }
        }
    </style>
</defs>
<g class="icon icon--large">
<circle cx="93.33" cy="101.84" r="5.66" fill="none" stroke="#4d148c" stroke-linecap="round" stroke-linejoin="round" stroke-width="2"/><circle cx="53.96" cy="101.84" r="5.66" fill="none" stroke="#4d148c" stroke-linecap="round" stroke-linejoin="round" stroke-width="2"/><path d="M20.53,4.5c1.12,0,2.1,1.34,2.33,2.44l15,70.46c1.53,7.12,4.19,13.19,11.47,13.19h56.78" fill="none" stroke="#4d148c" stroke-linecap="round" stroke-linejoin="round" stroke-width="2"/><path d="M101.22,67.41h-65L25.61,19.05l83.83,11.09a1.77,1.77,0,0,1,1.35,2.11l-8,34.63C102.59,67.6,102,67.41,101.22,67.41Z" fill="none" stroke="#4d148c" stroke-linecap="round" stroke-linejoin="round" stroke-width="2"/><circle cx="93.33" cy="101.84" r="5.66" fill="none" stroke="#4d148c" stroke-linecap="round" stroke-linejoin="round" stroke-width="2"/><circle cx="53.96" cy="101.84" r="5.66" fill="none" stroke="#4d148c" stroke-linecap="round" stroke-linejoin="round" stroke-width="2"/><path d="M1.17,4.5H20.53c1.12,0,2.1,1.34,2.33,2.44l15,70.46c1.53,7.12,4.19,13.19,11.47,13.19h56.78" fill="none" stroke="#4d148c" stroke-linecap="round" stroke-linejoin="round" stroke-width="2"/><path d="M101.22,67.41h-65L25.61,19.05l83.83,11.09a1.77,1.77,0,0,1,1.35,2.11l-8,34.63C102.59,67.6,102,67.41,101.22,67.41Z" fill="none" stroke="#4d148c" stroke-linecap="round" stroke-linejoin="round" stroke-width="2"/><line x1="30.89" y1="44.42" x2="105.71" y2="50.79" fill="none" stroke="#4d148c" stroke-linecap="round" stroke-linejoin="round" stroke-width="2"/><line x1="54.9" y1="23.42" x2="60.06" y2="67.44" fill="none" stroke="#4d148c" stroke-linecap="round" stroke-linejoin="round" stroke-width="2"/><line x1="85.45" y1="27.13" x2="83.14" y2="67.44" fill="none" stroke="#4d148c" stroke-linecap="round" stroke-linejoin="round" stroke-width="2"/>
</g>

<g class="icon icon--small">
<circle cx="93.33" cy="101.84" r="5.66" fill="none" stroke="#4d148c" stroke-linecap="round" stroke-linejoin="round" stroke-width="2"/><circle cx="53.96" cy="101.84" r="5.66" fill="none" stroke="#4d148c" stroke-linecap="round" stroke-linejoin="round" stroke-width="2"/><path d="M20.53,4.5c1.12,0,2.1,1.34,2.33,2.44l15,70.46c1.53,7.12,4.19,13.19,11.47,13.19h56.78" fill="none" stroke="#4d148c" stroke-linecap="round" stroke-linejoin="round" stroke-width="2"/><path d="M101.22,67.41h-65L25.61,19.05l83.83,11.09a1.77,1.77,0,0,1,1.35,2.11l-8,34.63C102.59,67.6,102,67.41,101.22,67.41Z" fill="none" stroke="#4d148c" stroke-linecap="round" stroke-linejoin="round" stroke-width="2"/><circle cx="93.33" cy="101.84" r="5.66" fill="none" stroke="#4d148c" stroke-linecap="round" stroke-linejoin="round" stroke-width="2"/><circle cx="53.96" cy="101.84" r="5.66" fill="none" stroke="#4d148c" stroke-linecap="round" stroke-linejoin="round" stroke-width="2"/><path d="M1.17,4.5H20.53c1.12,0,2.1,1.34,2.33,2.44l15,70.46c1.53,7.12,4.19,13.19,11.47,13.19h56.78" fill="none" stroke="#4d148c" stroke-linecap="round" stroke-linejoin="round" stroke-width="2"/><path d="M101.22,67.41h-65L25.61,19.05l83.83,11.09a1.77,1.77,0,0,1,1.35,2.11l-8,34.63C102.59,67.6,102,67.41,101.22,67.41Z" fill="none" stroke="#4d148c" stroke-linecap="round" stroke-linejoin="round" stroke-width="2"/><line x1="30.89" y1="44.42" x2="105.71" y2="50.79" fill="none" stroke="#4d148c" stroke-linecap="round" stroke-linejoin="round" stroke-width="2"/><line x1="54.9" y1="23.42" x2="60.06" y2="67.44" fill="none" stroke="#4d148c" stroke-linecap="round" stroke-linejoin="round" stroke-width="2"/><line x1="85.45" y1="27.13" x2="83.14" y2="67.44" fill="none" stroke="#4d148c" stroke-linecap="round" stroke-linejoin="round" stroke-width="2"/>
</g>
</svg>
