<svg id="Layer_1" data-name="Layer 1" xmlns="http://www.w3.org/2000/svg" viewBox="0 0 112 112"><title>working</title>

<defs>
    <style>
        /* Hide all of the icons first. */
        .icon {
            display: none;
        }

        .icon--small {
            display: block;
        }


        /* Display the desired icon and hide the others according to the viewport's size. */
        @media screen and (min-width: 100px) {

            .icon--large {
                display: block;
            }

            .icon--small {
                display: none;
            }
        }

        @media screen and (max-width: 69px){
            .icon--small * {
                stroke-width: 3;
            }
        }
    </style>
</defs>


<g class="icon icon--large">
<path d="M37,61.93V13.6a5.89,5.89,0,0,1,5.88-5.88h0a5.89,5.89,0,0,1,5.88,5.88v45" fill="none" stroke="#4d148c" stroke-linecap="round" stroke-linejoin="round" stroke-width="2"/><path d="M48.74,56.33V6.88A5.89,5.89,0,0,1,54.62,1h0A5.89,5.89,0,0,1,60.5,6.88V56.33" fill="none" stroke="#4d148c" stroke-linecap="round" stroke-linejoin="round" stroke-width="2"/><path d="M60.5,58.57V17a5.89,5.89,0,0,1,5.88-5.88h0A5.89,5.89,0,0,1,72.25,17v44" fill="none" stroke="#4d148c" stroke-linecap="round" stroke-linejoin="round" stroke-width="2"/><path d="M37,61.93V27a5.89,5.89,0,0,0-5.88-5.88h0A5.89,5.89,0,0,0,25.23,27V72c0,30.31,3.11,39,27.69,39,21.91,0,22.33-9.52,26.56-27.5s7.14-33.13,7.14-33.13a5.89,5.89,0,0,0-4.51-7h0a5.89,5.89,0,0,0-7,4.51L70.25,70.46s-15.81.16-19.79,15.84" fill="none" stroke="#4d148c" stroke-linecap="round" stroke-linejoin="round" stroke-width="2"/>
</g>
<g class="icon icon--small">
<path d="M37,61.93V13.6a5.89,5.89,0,0,1,5.88-5.88h0a5.89,5.89,0,0,1,5.88,5.88v45" fill="none" stroke="#4d148c" stroke-linecap="round" stroke-linejoin="round" stroke-width="2"/><path d="M48.74,56.33V6.88A5.89,5.89,0,0,1,54.62,1h0A5.89,5.89,0,0,1,60.5,6.88V56.33" fill="none" stroke="#4d148c" stroke-linecap="round" stroke-linejoin="round" stroke-width="2"/><path d="M60.5,58.57V17a5.89,5.89,0,0,1,5.88-5.88h0A5.89,5.89,0,0,1,72.25,17v44" fill="none" stroke="#4d148c" stroke-linecap="round" stroke-linejoin="round" stroke-width="2"/><path d="M37,61.93V27a5.89,5.89,0,0,0-5.88-5.88h0A5.89,5.89,0,0,0,25.23,27V72c0,30.31,3.11,39,27.69,39,21.91,0,22.33-9.52,26.56-27.5s7.14-33.13,7.14-33.13a5.89,5.89,0,0,0-4.51-7h0a5.89,5.89,0,0,0-7,4.51L70.25,70.46s-15.81.16-19.79,15.84" fill="none" stroke="#4d148c" stroke-linecap="round" stroke-linejoin="round" stroke-width="2"/>
</g>
</svg>
