<svg id="Layer_1" data-name="Layer 1" xmlns="http://www.w3.org/2000/svg" viewBox="0 0 112 112"><title>working</title>

<defs>
    <style>
        /* Hide all of the icons first. */
        .icon {
            display: none;
        }

        .icon--small {
            display: block;
        }


        /* Display the desired icon and hide the others according to the viewport's size. */
        @media screen and (min-width: 100px) {

            .icon--large {
                display: block;
            }

            .icon--small {
                display: none;
            }
        }

        @media screen and (max-width: 69px){
            .icon--small * {
                stroke-width: 3;
            }
        }
    </style>
</defs>


<g class="icon icon--large">

<path d="M100.51,51.11c7.27-7.27,11.4-19.23,10.15-29.65L90.38,41.75a27.8,27.8,0,0,1-12.77-7.38,27.17,27.17,0,0,1-7.3-12.69L90.63,1.35C80.19.07,68.18,4.2,60.89,11.49c-8,8-6.29,15.79-2.59,25.74L5.2,87.88a13.24,13.24,0,0,0-.11,19h0a13.24,13.24,0,0,0,19.08-.16l50.17-53.2C84.39,57.47,92.39,59.23,100.51,51.11Z" fill="none" stroke="#4d148c" stroke-linecap="round" stroke-linejoin="round" stroke-width="2"/><circle cx="14.54" cy="97.37" r="7.81" fill="none" stroke="#4d148c" stroke-linecap="round" stroke-linejoin="round" stroke-width="2"/>
</g>


<g class="icon icon--small">

<path d="M100.51,51.11c7.27-7.27,11.4-19.23,10.15-29.65L90.38,41.75a27.8,27.8,0,0,1-12.77-7.38,27.17,27.17,0,0,1-7.3-12.69L90.63,1.35C80.19.07,68.18,4.2,60.89,11.49c-8,8-6.29,15.79-2.59,25.74L5.2,87.88a13.24,13.24,0,0,0-.11,19h0a13.24,13.24,0,0,0,19.08-.16l50.17-53.2C84.39,57.47,92.39,59.23,100.51,51.11Z" fill="none" stroke="#4d148c" stroke-linecap="round" stroke-linejoin="round" stroke-width="2"/>
</g>
</svg>
