<svg xmlns="http://www.w3.org/2000/svg" viewBox="-2 -2 116 116">
    <defs>
        <style>
            /* Hide all of the icons first. */
            .icon {
                display: none;
            }

            .icon--small {
                display: block;
            }


            /* Display the desired icon and hide the others according to the viewport's size. */
            @media screen and (min-width: 100px) {

                .icon--large {
                    display: block;
                }

                .icon--small {
                    display: none;
                }
            }

            @media screen and (max-width: 69px){
                .icon--small * {
                    stroke-width: 3;
                }
            }
        </style>
    </defs>


    <g class="icon icon--large">
<circle cx="56" cy="56" r="54.94" fill="none" stroke="#4d148c" stroke-linecap="round" stroke-linejoin="round" stroke-width="2"/><path d="M69,44.8s.17-9.87-13.2-9.87c0,0-12.69-.44-12.69,9.87,0,0,0,.17,0,.48.19,4.61,4.19,8.41,9.43,9.46,1,.21,2.21.42,3.52.6,0,0,14.52,2.18,14.13,12.83,0,0,.46,11.33-13.56,11.18,0,0-10.81.87-14.7-9.73" fill="none" stroke="#4d148c" stroke-linecap="round" stroke-linejoin="round" stroke-width="2"/><line x1="56.77" y1="25.66" x2="56.77" y2="86.27" fill="none" stroke="#4d148c" stroke-linecap="round" stroke-linejoin="round" stroke-width="2"/><circle cx="56.1" cy="56" r="50.47" fill="none" stroke="#4d148c" stroke-linecap="round" stroke-linejoin="round" stroke-width="2"/>
    </g>

    <g class="icon icon--small">
<circle cx="56" cy="56" r="54.94" fill="none" stroke="#4d148c" stroke-linecap="round" stroke-linejoin="round" stroke-width="2"/><path d="M69,44.8s.17-9.87-13.2-9.87c0,0-12.69-.44-12.69,9.87,0,0,0,.17,0,.48.19,4.61,4.19,8.41,9.43,9.46,1,.21,2.21.42,3.52.6,0,0,14.52,2.18,14.13,12.83,0,0,.46,11.33-13.56,11.18,0,0-10.81.87-14.7-9.73" fill="none" stroke="#4d148c" stroke-linecap="round" stroke-linejoin="round" stroke-width="2"/><line x1="56.77" y1="25.66" x2="56.77" y2="86.27" fill="none" stroke="#4d148c" stroke-linecap="round" stroke-linejoin="round" stroke-width="2"/>
    </g>
</svg>
