<svg id="Layer_1" data-name="Layer 1" xmlns="http://www.w3.org/2000/svg" viewBox="0 0 112 112"><title>working 2</title>
    <defs>
        <style>
            /* Hide all of the icons first. */
            .icon {
                display: none;
            }

            .icon--small {
                display: block;
            }


            /* Display the desired icon and hide the others according to the viewport's size. */
            @media screen and (min-width: 100px) {

                .icon--large {
                    display: block;
                }

                .icon--small {
                    display: none;
                }
            }

            @media screen and (max-width: 69px){
                .icon--small * {
                    stroke-width: 3;
                }
            }
        </style>
    </defs>


    <g class="icon icon--large">
        <path d="M59.12,5.62l10.75,33.7c.44,1.35,1.7,2.86,3.12,2.86h34.8c3.18,0,4.5,3.47,1.93,5.34L81.57,67.68a3.07,3.07,0,0,0-1.19,3.52l10.75,33a3.27,3.27,0,0,1-5,3.63L57.93,87.38a3.28,3.28,0,0,0-3.86,0L25.92,107.82a3.28,3.28,0,0,1-5-3.67L31.62,71a3.28,3.28,0,0,0-1.19-3.67L2.27,47.52C-.3,45.65,1,42.18,4.2,42.18H39c1.42,0,2.68-1.51,3.12-2.86L52.88,5.92C53.86,2.9,58.14,2.6,59.12,5.62Z" fill="none" stroke="#4d148c" stroke-miterlimit="10" stroke-width="2"/><line x1="18.41" y1="23.74" x2="18.41" y2="32.26" fill="none" stroke="#4d148c" stroke-linecap="round" stroke-linejoin="round" stroke-width="2"/><line x1="14.16" y1="28" x2="22.67" y2="28" fill="none" stroke="#4d148c" stroke-linecap="round" stroke-linejoin="round" stroke-width="2"/><line x1="34.58" y1="9" x2="34.58" y2="17.51" fill="none" stroke="#4d148c" stroke-linecap="round" stroke-linejoin="round" stroke-width="2"/><line x1="30.32" y1="13.26" x2="38.83" y2="13.26" fill="none" stroke="#4d148c" stroke-linecap="round" stroke-linejoin="round" stroke-width="2"/>
    </g>

    <g class="icon icon--small">
<path d="M59.12,5.62l10.75,33.7c.44,1.35,1.7,2.86,3.12,2.86h34.8c3.18,0,4.5,3.47,1.93,5.34L81.57,67.68a3.07,3.07,0,0,0-1.19,3.52l10.75,33a3.27,3.27,0,0,1-5,3.63L57.93,87.38a3.28,3.28,0,0,0-3.86,0L25.92,107.82a3.28,3.28,0,0,1-5-3.67L31.62,71a3.28,3.28,0,0,0-1.19-3.67L2.27,47.52C-.3,45.65,1,42.18,4.2,42.18H39c1.42,0,2.68-1.51,3.12-2.86L52.88,5.92C53.86,2.9,58.14,2.6,59.12,5.62Z" fill="none" stroke="#4d148c" stroke-miterlimit="10" stroke-width="2"/>

    </g>



</svg>
