<?xml version="1.0" encoding="utf-8"?>
<!-- Generator: Adobe Illustrator 23.0.0, SVG Export Plug-In . SVG Version: 6.00 Build 0)  -->
<svg version="1.1" id="Layer_1" xmlns="http://www.w3.org/2000/svg" xmlns:xlink="http://www.w3.org/1999/xlink" x="0px" y="0px"
	 viewBox="0 0 41 41" style="enable-background:new 0 0 41 41;" xml:space="preserve">
<style type="text/css">
	.st0{fill:none;stroke:#4D148C;stroke-linecap:round;stroke-linejoin:round;}
	.st1{enable-background:new    ;}
	.st2{fill:#4D148C;}
</style>
<title>Group 43</title>
<desc>Created with Sketch.</desc>
<circle id="Oval" class="st0" cx="20.5" cy="20.5" r="19.5"/>
<g class="st1">
	<path class="st2" d="M26.3,29.5H15.1v-1.1l6.1-6.9c1-1.2,1.7-2.1,2.1-2.9s0.6-1.5,0.6-2.2c0-1.1-0.3-2-1-2.7s-1.6-1-2.7-1
		c-1.2,0-2.2,0.4-2.9,1.1c-0.7,0.8-1.1,1.8-1.1,3h-1.5c0-1,0.2-1.9,0.7-2.7s1.1-1.5,1.9-1.9c0.8-0.5,1.8-0.7,2.9-0.7
		c1.6,0,2.9,0.4,3.8,1.3c0.9,0.9,1.4,2,1.4,3.5c0,0.8-0.3,1.7-0.8,2.7s-1.4,2.2-2.7,3.7l-5,5.6h9.3L26.3,29.5
		C26.2,29.5,26.3,29.5,26.3,29.5z"/>
</g>
</svg>
