<?xml version="1.0" encoding="utf-8"?>
<!-- Generator: Adobe Illustrator 23.0.0, SVG Export Plug-In . SVG Version: 6.00 Build 0)  -->
<svg version="1.1" id="Layer_1" xmlns="http://www.w3.org/2000/svg" xmlns:xlink="http://www.w3.org/1999/xlink" x="0px" y="0px"
	 viewBox="0 0 41 41" style="enable-background:new 0 0 41 41;" xml:space="preserve">
<style type="text/css">
	.st0{fill:none;stroke:#4D148C;stroke-linecap:round;stroke-linejoin:round;}
	.st1{enable-background:new    ;}
	.st2{fill:#4D148C;}
</style>
<title>Group 43</title>
<desc>Created with Sketch.</desc>
<circle id="Oval" class="st0" cx="20.5" cy="20.5" r="19.5"/>
<g class="st1">
	<path class="st2" d="M18.8,19.7h1.5c0.8,0,1.6-0.1,2.2-0.4s1.1-0.7,1.4-1.2s0.5-1.1,0.5-1.8c0-1.1-0.3-2-1-2.7
		c-0.6-0.6-1.6-1-2.8-1c-1.1,0-2.1,0.3-2.8,1c-0.7,0.7-1.1,1.6-1.1,2.7h-1.5c0-0.9,0.2-1.8,0.7-2.5c0.5-0.7,1.1-1.3,1.9-1.8
		c0.8-0.4,1.7-0.6,2.7-0.6c1.6,0,2.9,0.4,3.8,1.3s1.4,2.1,1.4,3.6c0,0.9-0.3,1.6-0.8,2.4c-0.5,0.7-1.3,1.3-2.2,1.6
		c1.1,0.3,1.9,0.8,2.5,1.6c0.6,0.8,0.9,1.7,0.9,2.7c0,1.5-0.5,2.7-1.5,3.7s-2.3,1.4-4,1.4c-1.1,0-2-0.2-2.9-0.6s-1.6-1-2.1-1.8
		s-0.7-1.6-0.7-2.7h1.5c0,1.1,0.4,2.1,1.2,2.8c0.8,0.7,1.8,1.1,3,1.1c1.3,0,2.2-0.3,2.9-1c0.7-0.6,1.1-1.6,1.1-2.8
		c0-1.2-0.4-2.1-1.1-2.7c-0.8-0.6-1.9-0.9-3.4-0.9h-1.3C18.8,21.1,18.8,19.7,18.8,19.7z"/>
</g>
</svg>
